<svg version="1.1" id="Layer_1" xmlns="http://www.w3.org/2000/svg" xmlns:xlink="http://www.w3.org/1999/xlink" x="0px" y="0px"
	 width="100%" viewBox="0 0 500 500" enable-background="new 0 0 500 500" xml:space="preserve">
<path fill="#E14E2B" opacity="1.000000" stroke="none" 
	d="
M238.000000,501.000000 
	C158.666687,501.000000 79.833374,501.000000 1.000042,501.000000 
	C1.000028,334.333405 1.000028,167.666779 1.000014,1.000132 
	C167.666565,1.000088 334.333130,1.000088 500.999756,1.000044 
	C500.999847,167.666519 500.999847,334.333038 500.999939,500.999786 
	C413.500000,501.000000 326.000000,501.000000 238.000000,501.000000 
M185.863403,204.256134 
	C169.390198,248.685501 152.913101,293.113434 136.449341,337.546295 
	C134.650742,342.400391 136.567322,345.218109 141.761810,345.244293 
	C152.261414,345.297211 162.766479,345.075745 173.258545,345.361816 
	C176.877258,345.460480 178.080704,343.993378 179.054825,340.880341 
	C182.530991,329.771820 186.198288,318.720276 190.022095,307.726776 
	C190.534805,306.252747 192.346100,304.178436 193.577347,304.163757 
	C212.562698,303.937042 231.551575,304.005554 250.796280,304.005554 
	C255.036896,316.579895 259.305542,328.972656 263.351593,341.437683 
	C264.261688,344.241455 265.475800,345.398468 268.585510,345.338684 
	C279.248108,345.133789 289.917267,345.300110 300.583496,345.242737 
	C305.787445,345.214752 307.629150,342.472900 305.816559,337.488129 
	C285.476471,281.551636 265.104462,225.626801 244.794327,169.679474 
	C243.894379,167.200439 242.797394,165.986099 239.848953,166.033356 
	C227.685577,166.228302 215.516602,166.181458 203.351273,166.061966 
	C200.766022,166.036591 199.599548,166.876740 198.715088,169.358765 
	C194.641296,180.791092 190.317780,192.134415 185.863403,204.256134 
M362.214874,342.275330 
	C362.361389,341.635590 362.635712,340.995911 362.636108,340.356079 
	C362.661316,300.713715 362.670624,261.071350 362.659119,221.428970 
	C362.657959,217.371933 360.543549,215.328537 356.470703,215.329651 
	C347.642761,215.332062 338.814697,215.298004 329.986969,215.340240 
	C324.870087,215.364731 323.120361,217.093491 323.117859,222.169113 
	C323.098938,260.978699 323.132538,299.788330 323.074097,338.597839 
	C323.067200,343.166870 324.929077,345.346436 329.589264,345.296967 
	C338.416229,345.203278 347.248444,345.403412 356.069946,345.164642 
	C357.981140,345.112915 359.856171,343.723816 362.214874,342.275330 
M320.945801,181.689346 
	C322.394196,190.253326 327.479889,195.876541 335.613342,198.221558 
	C343.980377,200.633926 352.130310,199.829147 358.979034,193.697586 
	C364.937469,188.363068 367.040680,181.604080 365.352264,173.853271 
	C362.963684,162.888214 352.127350,155.811798 340.415283,157.319489 
	C327.339172,159.002792 320.420593,167.333572 320.945801,181.689346 
z"/>
<path fill="#FFFEFE" opacity="1.000000" stroke="none" 
	d="
M185.973618,203.882904 
	C190.317780,192.134415 194.641296,180.791092 198.715088,169.358765 
	C199.599548,166.876740 200.766022,166.036591 203.351273,166.061966 
	C215.516602,166.181458 227.685577,166.228302 239.848953,166.033356 
	C242.797394,165.986099 243.894379,167.200439 244.794327,169.679474 
	C265.104462,225.626801 285.476471,281.551636 305.816559,337.488129 
	C307.629150,342.472900 305.787445,345.214752 300.583496,345.242737 
	C289.917267,345.300110 279.248108,345.133789 268.585510,345.338684 
	C265.475800,345.398468 264.261688,344.241455 263.351593,341.437683 
	C259.305542,328.972656 255.036896,316.579895 250.796280,304.005554 
	C231.551575,304.005554 212.562698,303.937042 193.577347,304.163757 
	C192.346100,304.178436 190.534805,306.252747 190.022095,307.726776 
	C186.198288,318.720276 182.530991,329.771820 179.054825,340.880341 
	C178.080704,343.993378 176.877258,345.460480 173.258545,345.361816 
	C162.766479,345.075745 152.261414,345.297211 141.761810,345.244293 
	C136.567322,345.218109 134.650742,342.400391 136.449341,337.546295 
	C152.913101,293.113434 169.390198,248.685501 185.973618,203.882904 
M205.148956,258.711975 
	C203.879715,262.639404 202.610489,266.566864 201.250015,270.776672 
	C214.291290,270.776672 227.005264,270.776672 240.212219,270.776672 
	C233.731247,251.615891 227.370163,232.809540 220.686447,213.049301 
	C215.363266,228.738281 210.402817,243.358154 205.148956,258.711975 
z"/>
<path fill="#FEFCFB" opacity="1.000000" stroke="none" 
	d="
M361.981354,342.613037 
	C359.856171,343.723816 357.981140,345.112915 356.069946,345.164642 
	C347.248444,345.403412 338.416229,345.203278 329.589264,345.296967 
	C324.929077,345.346436 323.067200,343.166870 323.074097,338.597839 
	C323.132538,299.788330 323.098938,260.978699 323.117859,222.169113 
	C323.120361,217.093491 324.870087,215.364731 329.986969,215.340240 
	C338.814697,215.298004 347.642761,215.332062 356.470703,215.329651 
	C360.543549,215.328537 362.657959,217.371933 362.659119,221.428970 
	C362.670624,261.071350 362.661316,300.713715 362.636108,340.356079 
	C362.635712,340.995911 362.361389,341.635590 361.981354,342.613037 
z"/>
<path fill="#FFFDFD" opacity="1.000000" stroke="none" 
	d="
M320.892059,181.290939 
	C320.420593,167.333572 327.339172,159.002792 340.415283,157.319489 
	C352.127350,155.811798 362.963684,162.888214 365.352264,173.853271 
	C367.040680,181.604080 364.937469,188.363068 358.979034,193.697586 
	C352.130310,199.829147 343.980377,200.633926 335.613342,198.221558 
	C327.479889,195.876541 322.394196,190.253326 320.892059,181.290939 
z"/>
<path fill="#E1502E" opacity="1.000000" stroke="none" 
	d="
M205.295670,258.345001 
	C210.402817,243.358154 215.363266,228.738281 220.686447,213.049301 
	C227.370163,232.809540 233.731247,251.615891 240.212219,270.776672 
	C227.005264,270.776672 214.291290,270.776672 201.250015,270.776672 
	C202.610489,266.566864 203.879715,262.639404 205.295670,258.345001 
z"/>
</svg>