<svg version="1.1" id="Layer_1" xmlns="http://www.w3.org/2000/svg" xmlns:xlink="http://www.w3.org/1999/xlink" x="0px" y="0px"
	 width="100%" viewBox="0 0 500 500" enable-background="new 0 0 500 500" xml:space="preserve">
<path fill="#E14E2B" opacity="1.000000" stroke="none" 
	d="
M270.000000,501.000000 
	C180.000015,501.000000 90.500046,501.000000 1.000048,501.000000 
	C1.000032,334.333405 1.000032,167.666794 1.000016,1.000138 
	C167.666565,1.000092 334.333130,1.000092 500.999756,1.000046 
	C500.999847,167.666519 500.999847,334.333038 500.999939,500.999786 
	C424.166656,501.000000 347.333344,501.000000 270.000000,501.000000 
M21.366198,268.342529 
	C21.366198,270.800140 21.366198,273.257751 21.366198,276.008759 
	C32.605839,276.008759 43.387726,276.407715 54.126026,275.894562 
	C64.499069,275.398926 72.750832,268.635986 73.742615,259.873901 
	C74.244339,255.441391 74.044327,250.234192 72.111084,246.415298 
	C70.146912,242.535294 65.660118,239.932312 62.287022,236.778488 
	C62.183773,236.844482 62.882786,236.419281 63.559868,235.961609 
	C70.090385,231.547287 72.344643,225.318512 70.973610,217.754044 
	C69.715332,210.811737 64.825127,206.596588 58.422459,205.896317 
	C46.314095,204.572021 34.075344,204.439819 21.366226,203.785263 
	C21.366226,225.859619 21.366226,246.621445 21.366198,268.342529 
M451.825562,225.141724 
	C450.268707,226.055954 448.711823,226.970184 447.792572,227.509995 
	C442.170227,222.185059 435.917114,225.863297 430.278259,224.742371 
	C430.278259,249.962769 430.278259,274.552429 430.278259,299.334717 
	C435.638702,299.334717 440.711060,299.334717 446.342285,299.334717 
	C446.342285,290.980438 446.342285,282.899170 446.342285,274.457977 
	C447.568817,274.819763 448.205109,274.930878 448.776276,275.187073 
	C463.967285,282.000793 478.866760,275.056152 482.465149,259.048279 
	C483.539185,254.270355 483.723602,249.075806 483.195160,244.193420 
	C481.324371,226.908981 469.315063,219.512329 451.825562,225.141724 
M134.332748,262.706268 
	C134.713989,261.609039 135.161163,260.529785 135.466644,259.411865 
	C140.635559,240.496964 131.339569,225.114487 113.450607,223.537964 
	C103.221626,222.636490 93.329926,223.844574 86.349411,232.719315 
	C76.804718,244.854080 79.767647,265.923187 91.958588,273.655304 
	C105.825523,282.450409 126.546494,277.394287 134.332748,262.706268 
M150.628006,231.141678 
	C142.667191,240.691208 142.238647,251.517792 146.002670,262.628387 
	C148.718414,270.644745 154.979294,275.424652 163.250153,276.796906 
	C167.936874,277.574463 172.880859,277.628082 177.615112,277.124786 
	C188.281784,275.990723 195.569122,270.000305 198.268173,259.644470 
	C201.165268,248.528854 200.505768,237.779160 191.286789,229.283417 
	C189.844376,227.954193 188.124786,226.677719 186.301605,226.049728 
	C173.859299,221.763962 161.863144,221.505814 150.628006,231.141678 
M373.042084,270.258484 
	C377.113983,278.990509 393.019867,279.881958 401.216980,274.087952 
	C406.449371,278.363312 412.276581,275.338715 417.870697,276.360352 
	C417.870697,263.863739 418.212402,251.891678 417.752716,239.950485 
	C417.436798,231.744247 412.601593,226.139816 405.266388,224.392914 
	C396.269073,222.250198 387.413696,223.252747 378.900299,226.778809 
	C377.763214,227.249771 376.380371,228.662506 376.260254,229.764328 
	C375.907776,232.997620 376.134735,236.294052 376.134735,240.448837 
	C378.553528,239.469986 380.125671,238.735550 381.761200,238.191452 
	C385.670349,236.891006 389.532806,235.123550 393.555176,234.570389 
	C398.904663,233.834717 401.840759,237.052902 401.669189,242.548355 
	C396.625702,243.292099 391.508087,243.852585 386.470642,244.827286 
	C373.136444,247.407364 368.112152,256.559357 373.042084,270.258484 
M283.270142,227.354477 
	C282.880890,226.673386 282.618896,225.526428 282.083588,225.380264 
	C272.226807,222.688690 262.387604,221.807571 253.025284,227.035492 
	C247.870087,229.914169 245.913818,234.679337 246.105133,240.471680 
	C246.291855,246.125168 248.591187,250.436172 253.888321,252.774643 
	C257.680969,254.448959 261.725006,255.623062 265.342865,257.596161 
	C267.274323,258.649567 268.540100,260.923523 270.106323,262.646606 
	C267.990265,263.933197 265.820984,266.359741 263.769440,266.264038 
	C259.758698,266.076843 255.805542,264.511658 251.845215,263.454590 
	C250.090897,262.986298 248.377060,262.366364 246.114090,261.646423 
	C246.114090,265.070404 246.368454,267.586304 246.056122,270.029785 
	C245.552582,273.969238 247.185730,276.203552 250.983414,276.333649 
	C258.229309,276.581879 265.613495,277.348663 272.706818,276.308472 
	C281.019287,275.089447 285.482452,269.643188 285.981842,262.888184 
	C286.627930,254.148346 283.793854,249.920334 274.875458,246.254105 
	C271.654419,244.930008 268.329163,243.777023 265.310791,242.083710 
	C264.135559,241.424393 263.058350,239.476486 263.089417,238.142349 
	C263.113159,237.121811 264.926788,235.325684 265.984589,235.295654 
	C269.534485,235.194931 273.130280,235.550629 276.652771,236.093216 
	C278.649994,236.400848 280.538422,237.414383 283.292114,238.403076 
	C283.292114,234.410355 283.292114,231.301453 283.270142,227.354477 
M314.606689,211.499985 
	C314.281128,210.978409 313.850250,209.963791 313.645447,210.007538 
	C308.816620,211.039062 303.779694,211.661911 299.347321,213.633286 
	C298.046173,214.211975 298.467407,218.675293 298.111023,221.359787 
	C297.982361,222.329163 297.888214,223.303116 297.761749,224.421371 
	C295.179932,224.617981 292.737366,224.803986 290.192139,224.997803 
	C290.192139,228.825851 290.192139,232.436722 290.192139,236.328308 
	C292.790558,236.527878 295.208679,236.713593 298.114075,236.936737 
	C298.114075,245.397125 298.009064,253.679581 298.143799,261.958130 
	C298.276886,270.134644 301.708313,275.723816 308.113678,276.742310 
	C313.103424,277.535706 318.330292,277.079987 323.425690,276.761932 
	C324.442566,276.698456 326.011017,274.831909 326.163849,273.646942 
	C326.555847,270.608276 326.294739,267.485352 326.294739,263.822693 
	C324.247711,264.333221 323.001617,264.585876 321.791656,264.956573 
	C318.120758,266.081238 315.363586,264.466522 315.170563,261.049713 
	C314.716766,253.017014 315.025208,244.941269 315.025208,236.483154 
	C318.928894,236.483154 322.361755,236.483154 325.933228,236.483154 
	C325.933228,232.357498 325.933228,228.653961 325.933228,224.559479 
	C322.129822,224.559479 318.693390,224.559479 314.631897,224.559479 
	C314.631897,220.236359 314.631897,216.285507 314.606689,211.499985 
M229.195419,261.747009 
	C229.195419,253.516022 229.195419,245.285034 229.195419,236.858749 
	C232.888779,236.697067 236.446213,236.541321 240.012634,236.385193 
	C240.012634,232.259521 240.012634,228.679245 240.012634,224.521088 
	C236.181686,224.521088 232.624420,224.521088 228.603134,224.521088 
	C228.603134,219.365204 228.603134,214.776794 228.603134,209.009781 
	C222.820831,210.659378 217.470871,211.442474 213.019043,213.871552 
	C211.524933,214.686798 212.328934,219.695068 212.054764,222.784363 
	C212.012039,223.265793 211.820328,223.733994 211.643997,224.414902 
	C209.214127,224.600204 206.770157,224.786591 204.366669,224.969879 
	C204.366669,228.877136 204.366669,232.592270 204.366669,236.423965 
	C207.017731,236.586975 209.298828,236.727249 212.111206,236.900177 
	C212.111206,244.328979 212.108643,251.607452 212.111740,258.885925 
	C212.117859,273.273346 217.039978,278.076477 231.419083,277.608368 
	C233.565796,277.538483 235.766937,277.327942 237.811890,276.732483 
	C238.791656,276.447205 240.083145,275.164917 240.165512,274.239136 
	C240.453842,270.998779 240.277252,267.717010 240.277252,264.300568 
	C236.274460,263.935211 232.080185,267.649597 229.195419,261.747009 
M333.996979,244.500412 
	C333.996979,254.945511 333.996979,265.390625 333.996979,276.011780 
	C339.596741,276.011780 344.664978,276.011780 350.283020,276.011780 
	C350.283020,273.301514 350.250214,270.852417 350.289215,268.404449 
	C350.400452,261.419922 350.173004,254.403641 350.779968,247.461166 
	C351.319366,241.291855 354.629913,237.668701 359.765808,237.036545 
	C362.224701,236.733887 364.833282,237.646835 367.658142,238.049728 
	C367.744507,236.091293 367.969391,234.604980 367.841003,233.149857 
	C367.575073,230.136246 367.361267,224.609512 366.705811,224.547348 
	C362.566376,224.154785 358.297821,224.875671 354.105469,225.466995 
	C353.081726,225.611389 352.183258,226.644424 351.585144,227.035080 
	C346.073700,222.558350 340.081116,225.723831 333.996979,224.571854 
	C333.996979,231.271027 333.996979,237.385818 333.996979,244.500412 
z"/>
<path fill="#FEFBFA" opacity="1.000000" stroke="none" 
	d="
M21.366211,267.862915 
	C21.366226,246.621445 21.366226,225.859619 21.366226,203.785263 
	C34.075344,204.439819 46.314095,204.572021 58.422459,205.896317 
	C64.825127,206.596588 69.715332,210.811737 70.973610,217.754044 
	C72.344643,225.318512 70.090385,231.547287 63.559868,235.961609 
	C62.882786,236.419281 62.183773,236.844482 62.287022,236.778488 
	C65.660118,239.932312 70.146912,242.535294 72.111084,246.415298 
	C74.044327,250.234192 74.244339,255.441391 73.742615,259.873901 
	C72.750832,268.635986 64.499069,275.398926 54.126026,275.894562 
	C43.387726,276.407715 32.605839,276.008759 21.366198,276.008759 
	C21.366198,273.257751 21.366198,270.800140 21.366211,267.862915 
M43.344673,245.280426 
	C41.724667,245.353851 40.104656,245.427277 38.290543,245.509506 
	C38.290543,251.882370 38.290543,257.941528 38.290543,264.172119 
	C41.540394,264.172119 44.531219,264.418915 47.466557,264.120270 
	C53.406151,263.515961 57.114910,259.705719 57.103264,254.625732 
	C57.092167,249.785995 54.053402,246.716705 48.171101,245.685257 
	C46.868477,245.456833 45.533810,245.411148 43.344673,245.280426 
M53.095722,228.263245 
	C52.813686,225.326111 53.586781,221.526367 52.034538,219.627655 
	C48.580990,215.403259 43.261711,216.118942 38.375648,216.526611 
	C38.375648,222.383850 38.375648,227.760117 38.375648,233.179764 
	C43.961014,233.572998 49.120113,233.843658 53.095722,228.263245 
z"/>
<path fill="#FEFCFC" opacity="1.000000" stroke="none" 
	d="
M452.193665,225.018402 
	C469.315063,219.512329 481.324371,226.908981 483.195160,244.193420 
	C483.723602,249.075806 483.539185,254.270355 482.465149,259.048279 
	C478.866760,275.056152 463.967285,282.000793 448.776276,275.187073 
	C448.205109,274.930878 447.568817,274.819763 446.342285,274.457977 
	C446.342285,282.899170 446.342285,290.980438 446.342285,299.334717 
	C440.711060,299.334717 435.638702,299.334717 430.278259,299.334717 
	C430.278259,274.552429 430.278259,249.962769 430.278259,224.742371 
	C435.917114,225.863297 442.170227,222.185059 447.792572,227.509995 
	C448.711823,226.970184 450.268707,226.055954 452.193665,225.018402 
M464.116272,260.439789 
	C466.902039,255.256989 467.683624,249.819839 466.320435,244.063141 
	C465.227051,239.445755 462.786377,236.218918 457.805817,235.591339 
	C453.684052,235.071976 448.823181,237.894897 447.609955,242.684586 
	C446.504425,247.049103 446.377991,251.806625 446.666626,256.337006 
	C446.935638,260.559784 449.621704,263.756256 453.800232,265.064514 
	C458.046539,266.393982 461.161713,264.266388 464.116272,260.439789 
z"/>
<path fill="#FEFBFB" opacity="1.000000" stroke="none" 
	d="
M134.167328,263.051300 
	C126.546494,277.394287 105.825523,282.450409 91.958588,273.655304 
	C79.767647,265.923187 76.804718,244.854080 86.349411,232.719315 
	C93.329926,223.844574 103.221626,222.636490 113.450607,223.537964 
	C131.339569,225.114487 140.635559,240.496964 135.466644,259.411865 
	C135.161163,260.529785 134.713989,261.609039 134.167328,263.051300 
M120.123161,249.613083 
	C119.903725,247.973465 119.831543,246.297592 119.438293,244.700790 
	C118.046524,239.049469 114.609573,235.852570 109.709686,235.479706 
	C104.865326,235.111084 99.750809,238.207916 98.715973,243.745010 
	C97.809807,248.593613 98.048737,253.933365 99.068947,258.785522 
	C100.054688,263.473785 104.386688,265.496307 109.054634,265.502777 
	C113.629684,265.509125 117.072205,263.077301 118.617195,258.771912 
	C119.551384,256.168640 119.650238,253.265656 120.123161,249.613083 
z"/>
<path fill="#FEFBFB" opacity="1.000000" stroke="none" 
	d="
M150.881104,230.887482 
	C161.863144,221.505814 173.859299,221.763962 186.301605,226.049728 
	C188.124786,226.677719 189.844376,227.954193 191.286789,229.283417 
	C200.505768,237.779160 201.165268,248.528854 198.268173,259.644470 
	C195.569122,270.000305 188.281784,275.990723 177.615112,277.124786 
	C172.880859,277.628082 167.936874,277.574463 163.250153,276.796906 
	C154.979294,275.424652 148.718414,270.644745 146.002670,262.628387 
	C142.238647,251.517792 142.667191,240.691208 150.881104,230.887482 
M170.104462,265.292084 
	C175.172287,266.080109 179.027496,264.185303 181.200012,259.622009 
	C183.988647,253.764572 183.976273,247.626633 181.451660,241.703598 
	C178.878326,235.666260 171.694901,233.552994 166.379837,237.231171 
	C160.956772,240.984085 159.969452,246.751984 160.470718,252.773239 
	C160.950653,258.538330 162.860397,263.573303 170.104462,265.292084 
z"/>
<path fill="#FEFBFB" opacity="1.000000" stroke="none" 
	d="
M372.881805,269.908966 
	C368.112152,256.559357 373.136444,247.407364 386.470642,244.827286 
	C391.508087,243.852585 396.625702,243.292099 401.669189,242.548355 
	C401.840759,237.052902 398.904663,233.834717 393.555176,234.570389 
	C389.532806,235.123550 385.670349,236.891006 381.761200,238.191452 
	C380.125671,238.735550 378.553528,239.469986 376.134735,240.448837 
	C376.134735,236.294052 375.907776,232.997620 376.260254,229.764328 
	C376.380371,228.662506 377.763214,227.249771 378.900299,226.778809 
	C387.413696,223.252747 396.269073,222.250198 405.266388,224.392914 
	C412.601593,226.139816 417.436798,231.744247 417.752716,239.950485 
	C418.212402,251.891678 417.870697,263.863739 417.870697,276.360352 
	C412.276581,275.338715 406.449371,278.363312 401.216980,274.087952 
	C393.019867,279.881958 377.113983,278.990509 372.881805,269.908966 
M402.138794,253.448898 
	C398.466095,253.770874 394.626068,253.534546 391.167542,254.571075 
	C387.673645,255.618195 385.901733,258.610992 387.447205,262.485931 
	C388.822754,265.934814 392.570862,267.179138 396.214325,265.367584 
	C400.723785,263.125458 402.503418,259.248505 402.138794,253.448898 
z"/>
<path fill="#FEFAFA" opacity="1.000000" stroke="none" 
	d="
M283.281128,227.773529 
	C283.292114,231.301453 283.292114,234.410355 283.292114,238.403076 
	C280.538422,237.414383 278.649994,236.400848 276.652771,236.093216 
	C273.130280,235.550629 269.534485,235.194931 265.984589,235.295654 
	C264.926788,235.325684 263.113159,237.121811 263.089417,238.142349 
	C263.058350,239.476486 264.135559,241.424393 265.310791,242.083710 
	C268.329163,243.777023 271.654419,244.930008 274.875458,246.254105 
	C283.793854,249.920334 286.627930,254.148346 285.981842,262.888184 
	C285.482452,269.643188 281.019287,275.089447 272.706818,276.308472 
	C265.613495,277.348663 258.229309,276.581879 250.983414,276.333649 
	C247.185730,276.203552 245.552582,273.969238 246.056122,270.029785 
	C246.368454,267.586304 246.114090,265.070404 246.114090,261.646423 
	C248.377060,262.366364 250.090897,262.986298 251.845215,263.454590 
	C255.805542,264.511658 259.758698,266.076843 263.769440,266.264038 
	C265.820984,266.359741 267.990265,263.933197 270.106323,262.646606 
	C268.540100,260.923523 267.274323,258.649567 265.342865,257.596161 
	C261.725006,255.623062 257.680969,254.448959 253.888321,252.774643 
	C248.591187,250.436172 246.291855,246.125168 246.105133,240.471680 
	C245.913818,234.679337 247.870087,229.914169 253.025284,227.035492 
	C262.387604,221.807571 272.226807,222.688690 282.083588,225.380264 
	C282.618896,225.526428 282.880890,226.673386 283.281128,227.773529 
z"/>
<path fill="#FEFAF9" opacity="1.000000" stroke="none" 
	d="
M314.619293,211.917328 
	C314.631897,216.285507 314.631897,220.236359 314.631897,224.559479 
	C318.693390,224.559479 322.129822,224.559479 325.933228,224.559479 
	C325.933228,228.653961 325.933228,232.357498 325.933228,236.483154 
	C322.361755,236.483154 318.928894,236.483154 315.025208,236.483154 
	C315.025208,244.941269 314.716766,253.017014 315.170563,261.049713 
	C315.363586,264.466522 318.120758,266.081238 321.791656,264.956573 
	C323.001617,264.585876 324.247711,264.333221 326.294739,263.822693 
	C326.294739,267.485352 326.555847,270.608276 326.163849,273.646942 
	C326.011017,274.831909 324.442566,276.698456 323.425690,276.761932 
	C318.330292,277.079987 313.103424,277.535706 308.113678,276.742310 
	C301.708313,275.723816 298.276886,270.134644 298.143799,261.958130 
	C298.009064,253.679581 298.114075,245.397125 298.114075,236.936737 
	C295.208679,236.713593 292.790558,236.527878 290.192139,236.328308 
	C290.192139,232.436722 290.192139,228.825851 290.192139,224.997803 
	C292.737366,224.803986 295.179932,224.617981 297.761749,224.421371 
	C297.888214,223.303116 297.982361,222.329163 298.111023,221.359787 
	C298.467407,218.675293 298.046173,214.211975 299.347321,213.633286 
	C303.779694,211.661911 308.816620,211.039062 313.645447,210.007538 
	C313.850250,209.963791 314.281128,210.978409 314.619293,211.917328 
z"/>
<path fill="#FEFAF9" opacity="1.000000" stroke="none" 
	d="
M229.388184,262.141357 
	C232.080185,267.649597 236.274460,263.935211 240.277252,264.300568 
	C240.277252,267.717010 240.453842,270.998779 240.165512,274.239136 
	C240.083145,275.164917 238.791656,276.447205 237.811890,276.732483 
	C235.766937,277.327942 233.565796,277.538483 231.419083,277.608368 
	C217.039978,278.076477 212.117859,273.273346 212.111740,258.885925 
	C212.108643,251.607452 212.111206,244.328979 212.111206,236.900177 
	C209.298828,236.727249 207.017731,236.586975 204.366669,236.423965 
	C204.366669,232.592270 204.366669,228.877136 204.366669,224.969879 
	C206.770157,224.786591 209.214127,224.600204 211.643997,224.414902 
	C211.820328,223.733994 212.012039,223.265793 212.054764,222.784363 
	C212.328934,219.695068 211.524933,214.686798 213.019043,213.871552 
	C217.470871,211.442474 222.820831,210.659378 228.603134,209.009781 
	C228.603134,214.776794 228.603134,219.365204 228.603134,224.521088 
	C232.624420,224.521088 236.181686,224.521088 240.012634,224.521088 
	C240.012634,228.679245 240.012634,232.259521 240.012634,236.385193 
	C236.446213,236.541321 232.888779,236.697067 229.195419,236.858749 
	C229.195419,245.285034 229.195419,253.516022 229.388184,262.141357 
z"/>
<path fill="#FFFEFE" opacity="1.000000" stroke="none" 
	d="
M333.996979,244.000519 
	C333.996979,237.385818 333.996979,231.271027 333.996979,224.571854 
	C340.081116,225.723831 346.073700,222.558350 351.585144,227.035080 
	C352.183258,226.644424 353.081726,225.611389 354.105469,225.466995 
	C358.297821,224.875671 362.566376,224.154785 366.705811,224.547348 
	C367.361267,224.609512 367.575073,230.136246 367.841003,233.149857 
	C367.969391,234.604980 367.744507,236.091293 367.658142,238.049728 
	C364.833282,237.646835 362.224701,236.733887 359.765808,237.036545 
	C354.629913,237.668701 351.319366,241.291855 350.779968,247.461166 
	C350.173004,254.403641 350.400452,261.419922 350.289215,268.404449 
	C350.250214,270.852417 350.283020,273.301514 350.283020,276.011780 
	C344.664978,276.011780 339.596741,276.011780 333.996979,276.011780 
	C333.996979,265.390625 333.996979,254.945511 333.996979,244.000519 
z"/>
<path fill="#E15230" opacity="1.000000" stroke="none" 
	d="
M43.779289,245.280869 
	C45.533810,245.411148 46.868477,245.456833 48.171101,245.685257 
	C54.053402,246.716705 57.092167,249.785995 57.103264,254.625732 
	C57.114910,259.705719 53.406151,263.515961 47.466557,264.120270 
	C44.531219,264.418915 41.540394,264.172119 38.290543,264.172119 
	C38.290543,257.941528 38.290543,251.882370 38.290543,245.509506 
	C40.104656,245.427277 41.724667,245.353851 43.779289,245.280869 
z"/>
<path fill="#E1512F" opacity="1.000000" stroke="none" 
	d="
M52.931812,228.624939 
	C49.120113,233.843658 43.961014,233.572998 38.375648,233.179764 
	C38.375648,227.760117 38.375648,222.383850 38.375648,216.526611 
	C43.261711,216.118942 48.580990,215.403259 52.034538,219.627655 
	C53.586781,221.526367 52.813686,225.326111 52.931812,228.624939 
z"/>
<path fill="#E15130" opacity="1.000000" stroke="none" 
	d="
M463.926453,260.764771 
	C461.161713,264.266388 458.046539,266.393982 453.800232,265.064514 
	C449.621704,263.756256 446.935638,260.559784 446.666626,256.337006 
	C446.377991,251.806625 446.504425,247.049103 447.609955,242.684586 
	C448.823181,237.894897 453.684052,235.071976 457.805817,235.591339 
	C462.786377,236.218918 465.227051,239.445755 466.320435,244.063141 
	C467.683624,249.819839 466.902039,255.256989 463.926453,260.764771 
z"/>
<path fill="#E1512F" opacity="1.000000" stroke="none" 
	d="
M120.123779,250.055206 
	C119.650238,253.265656 119.551384,256.168640 118.617195,258.771912 
	C117.072205,263.077301 113.629684,265.509125 109.054634,265.502777 
	C104.386688,265.496307 100.054688,263.473785 99.068947,258.785522 
	C98.048737,253.933365 97.809807,248.593613 98.715973,243.745010 
	C99.750809,238.207916 104.865326,235.111084 109.709686,235.479706 
	C114.609573,235.852570 118.046524,239.049469 119.438293,244.700790 
	C119.831543,246.297592 119.903725,247.973465 120.123779,250.055206 
z"/>
<path fill="#E1512F" opacity="1.000000" stroke="none" 
	d="
M169.734512,265.221313 
	C162.860397,263.573303 160.950653,258.538330 160.470718,252.773239 
	C159.969452,246.751984 160.956772,240.984085 166.379837,237.231171 
	C171.694901,233.552994 178.878326,235.666260 181.451660,241.703598 
	C183.976273,247.626633 183.988647,253.764572 181.200012,259.622009 
	C179.027496,264.185303 175.172287,266.080109 169.734512,265.221313 
z"/>
<path fill="#E25331" opacity="1.000000" stroke="none" 
	d="
M402.235291,253.897980 
	C402.503418,259.248505 400.723785,263.125458 396.214325,265.367584 
	C392.570862,267.179138 388.822754,265.934814 387.447205,262.485931 
	C385.901733,258.610992 387.673645,255.618195 391.167542,254.571075 
	C394.626068,253.534546 398.466095,253.770874 402.235291,253.897980 
z"/>
</svg>