<svg version="1.1" id="Layer_1" xmlns="http://www.w3.org/2000/svg" xmlns:xlink="http://www.w3.org/1999/xlink" x="0px" y="0px"
	 width="100%" viewBox="0 0 500 500" enable-background="new 0 0 500 500" xml:space="preserve">
<path fill="#E14E2B" opacity="1.000000" stroke="none" 
	d="
M234.000000,501.000000 
	C156.000015,501.000000 78.500038,501.000000 1.000041,501.000000 
	C1.000028,334.333405 1.000028,167.666779 1.000014,1.000131 
	C167.666565,1.000087 334.333130,1.000087 500.999756,1.000044 
	C500.999847,167.666519 500.999847,334.333038 500.999939,500.999786 
	C412.166656,501.000000 323.333344,501.000000 234.000000,501.000000 
M213.735916,304.461395 
	C213.735931,305.794189 213.971741,307.178223 213.695068,308.450867 
	C212.505005,313.925079 215.374023,316.546509 220.163879,317.568176 
	C227.936340,319.225983 235.701019,321.411713 243.572250,322.005585 
	C257.063354,323.023438 270.406342,322.126190 283.217682,316.575897 
	C309.852112,305.037079 310.086975,267.596222 290.428253,254.044586 
	C283.222290,249.077179 275.238647,245.228348 267.558868,240.960724 
	C261.031128,237.333267 253.981186,234.462845 247.963211,230.141983 
	C238.011093,222.996429 239.617157,211.012878 250.707657,205.888992 
	C258.085968,202.480164 266.002747,202.051880 273.711487,203.499359 
	C281.901978,205.037277 289.853760,207.846802 298.263367,210.200012 
	C298.263367,203.934113 298.115723,196.993225 298.331360,190.063660 
	C298.426208,187.014709 297.345001,185.701950 294.457214,184.822647 
	C281.485077,180.872772 268.273102,180.380722 254.918335,181.672104 
	C245.150314,182.616623 236.045868,185.571594 227.965317,191.275299 
	C210.488785,203.611221 207.646500,230.366699 223.209671,245.043869 
	C230.063995,251.507980 238.982315,255.877014 247.236618,260.733093 
	C253.664429,264.514618 260.735809,267.217926 267.082611,271.114685 
	C270.176941,273.014496 273.063354,276.154785 274.665649,279.411621 
	C279.235596,288.700562 272.654388,298.055511 260.484711,299.977203 
	C245.001495,302.422089 230.716614,299.313293 217.814377,290.259583 
	C216.682007,289.464966 215.479691,288.770020 213.735916,287.665100 
	C213.735916,293.498199 213.735916,298.486328 213.735916,304.461395 
M402.307587,185.481888 
	C389.653748,180.978775 376.531738,180.469147 363.350281,181.374908 
	C352.753357,182.103088 342.735626,185.038086 333.917236,191.293686 
	C316.458038,203.678909 313.631287,230.417236 329.260284,245.081406 
	C336.247131,251.636993 345.372742,255.991196 353.759613,260.952484 
	C360.750793,265.088104 368.329895,268.257782 375.179138,272.596436 
	C380.406464,275.907654 383.052673,281.356323 381.760254,287.714050 
	C380.514038,293.844727 376.143066,298.124176 370.251373,298.849457 
	C361.949921,299.871368 353.186584,300.796936 345.133606,299.191406 
	C336.445374,297.459167 328.348297,292.761932 319.736053,289.253326 
	C319.736053,295.591522 319.980499,302.842651 319.637543,310.065918 
	C319.453644,313.938812 320.941650,315.736603 324.390045,316.954895 
	C344.185303,323.948456 364.240234,324.576996 384.197723,318.430756 
	C398.276184,314.095032 407.745392,304.659760 409.745514,289.442291 
	C411.797852,273.827759 407.238861,260.632202 393.545624,251.827576 
	C387.142303,247.710297 380.158051,244.495255 373.429047,240.886215 
	C367.136719,237.511398 360.648041,234.455856 354.592346,230.700958 
	C349.433136,227.501938 346.851318,222.521378 347.767273,216.207703 
	C348.618195,210.342346 352.691284,206.667130 357.793701,205.587936 
	C364.999756,204.063797 372.653381,202.854919 379.872345,203.668930 
	C388.068909,204.593170 395.997192,207.897003 404.263611,210.228851 
	C404.263611,203.999939 404.333862,197.190872 404.209076,190.385376 
	C404.181488,188.879150 403.464325,187.385559 402.307587,185.481888 
M196.649063,188.250610 
	C195.395523,187.173706 194.291763,185.471161 192.862335,185.128952 
	C186.893341,183.699875 180.873856,182.200851 174.786682,181.598343 
	C155.956787,179.734604 137.749863,181.752823 121.772507,192.981201 
	C97.905136,209.754501 89.669487,233.642822 91.581383,261.761780 
	C93.002304,282.659729 100.994034,300.541656 119.172775,311.826630 
	C143.109695,326.686066 168.587723,324.873077 194.145248,316.001984 
	C195.098358,315.671173 196.474045,314.591064 196.491119,313.833954 
	C196.664932,306.122192 196.597366,298.404999 196.597366,291.555817 
	C187.629242,294.012695 179.323593,297.167877 170.738739,298.442474 
	C156.343430,300.579712 142.836273,297.977356 132.027191,287.052185 
	C119.220940,274.108398 115.172867,249.507477 123.705338,230.956650 
	C126.473709,224.937820 130.754761,219.166946 135.612839,214.646347 
	C147.235733,203.830917 161.819580,203.195068 176.508514,205.558929 
	C183.242447,206.642609 189.706039,209.405975 196.664993,211.520889 
	C196.664993,204.049377 196.664993,196.585327 196.649063,188.250610 
z"/>
<path fill="#FFFDFD" opacity="1.000000" stroke="none" 
	d="
M213.735916,303.967926 
	C213.735916,298.486328 213.735916,293.498199 213.735916,287.665100 
	C215.479691,288.770020 216.682007,289.464966 217.814377,290.259583 
	C230.716614,299.313293 245.001495,302.422089 260.484711,299.977203 
	C272.654388,298.055511 279.235596,288.700562 274.665649,279.411621 
	C273.063354,276.154785 270.176941,273.014496 267.082611,271.114685 
	C260.735809,267.217926 253.664429,264.514618 247.236618,260.733093 
	C238.982315,255.877014 230.063995,251.507980 223.209671,245.043869 
	C207.646500,230.366699 210.488785,203.611221 227.965317,191.275299 
	C236.045868,185.571594 245.150314,182.616623 254.918335,181.672104 
	C268.273102,180.380722 281.485077,180.872772 294.457214,184.822647 
	C297.345001,185.701950 298.426208,187.014709 298.331360,190.063660 
	C298.115723,196.993225 298.263367,203.934113 298.263367,210.200012 
	C289.853760,207.846802 281.901978,205.037277 273.711487,203.499359 
	C266.002747,202.051880 258.085968,202.480164 250.707657,205.888992 
	C239.617157,211.012878 238.011093,222.996429 247.963211,230.141983 
	C253.981186,234.462845 261.031128,237.333267 267.558868,240.960724 
	C275.238647,245.228348 283.222290,249.077179 290.428253,254.044586 
	C310.086975,267.596222 309.852112,305.037079 283.217682,316.575897 
	C270.406342,322.126190 257.063354,323.023438 243.572250,322.005585 
	C235.701019,321.411713 227.936340,319.225983 220.163879,317.568176 
	C215.374023,316.546509 212.505005,313.925079 213.695068,308.450867 
	C213.971741,307.178223 213.735931,305.794189 213.735916,303.967926 
z"/>
<path fill="#FFFDFD" opacity="1.000000" stroke="none" 
	d="
M402.686127,185.684021 
	C403.464325,187.385559 404.181488,188.879150 404.209076,190.385376 
	C404.333862,197.190872 404.263611,203.999939 404.263611,210.228851 
	C395.997192,207.897003 388.068909,204.593170 379.872345,203.668930 
	C372.653381,202.854919 364.999756,204.063797 357.793701,205.587936 
	C352.691284,206.667130 348.618195,210.342346 347.767273,216.207703 
	C346.851318,222.521378 349.433136,227.501938 354.592346,230.700958 
	C360.648041,234.455856 367.136719,237.511398 373.429047,240.886215 
	C380.158051,244.495255 387.142303,247.710297 393.545624,251.827576 
	C407.238861,260.632202 411.797852,273.827759 409.745514,289.442291 
	C407.745392,304.659760 398.276184,314.095032 384.197723,318.430756 
	C364.240234,324.576996 344.185303,323.948456 324.390045,316.954895 
	C320.941650,315.736603 319.453644,313.938812 319.637543,310.065918 
	C319.980499,302.842651 319.736053,295.591522 319.736053,289.253326 
	C328.348297,292.761932 336.445374,297.459167 345.133606,299.191406 
	C353.186584,300.796936 361.949921,299.871368 370.251373,298.849457 
	C376.143066,298.124176 380.514038,293.844727 381.760254,287.714050 
	C383.052673,281.356323 380.406464,275.907654 375.179138,272.596436 
	C368.329895,268.257782 360.750793,265.088104 353.759613,260.952484 
	C345.372742,255.991196 336.247131,251.636993 329.260284,245.081406 
	C313.631287,230.417236 316.458038,203.678909 333.917236,191.293686 
	C342.735626,185.038086 352.753357,182.103088 363.350281,181.374908 
	C376.531738,180.469147 389.653748,180.978775 402.686127,185.684021 
z"/>
<path fill="#FEFCFC" opacity="1.000000" stroke="none" 
	d="
M196.657028,188.685944 
	C196.664993,196.585327 196.664993,204.049377 196.664993,211.520889 
	C189.706039,209.405975 183.242447,206.642609 176.508514,205.558929 
	C161.819580,203.195068 147.235733,203.830917 135.612839,214.646347 
	C130.754761,219.166946 126.473709,224.937820 123.705338,230.956650 
	C115.172867,249.507477 119.220940,274.108398 132.027191,287.052185 
	C142.836273,297.977356 156.343430,300.579712 170.738739,298.442474 
	C179.323593,297.167877 187.629242,294.012695 196.597366,291.555817 
	C196.597366,298.404999 196.664932,306.122192 196.491119,313.833954 
	C196.474045,314.591064 195.098358,315.671173 194.145248,316.001984 
	C168.587723,324.873077 143.109695,326.686066 119.172775,311.826630 
	C100.994034,300.541656 93.002304,282.659729 91.581383,261.761780 
	C89.669487,233.642822 97.905136,209.754501 121.772507,192.981201 
	C137.749863,181.752823 155.956787,179.734604 174.786682,181.598343 
	C180.873856,182.200851 186.893341,183.699875 192.862335,185.128952 
	C194.291763,185.471161 195.395523,187.173706 196.657028,188.685944 
z"/>
</svg>