<svg version="1.1" id="Layer_1" xmlns="http://www.w3.org/2000/svg" xmlns:xlink="http://www.w3.org/1999/xlink" x="0px" y="0px"
	 width="100%" viewBox="0 0 500 500" enable-background="new 0 0 500 500" xml:space="preserve">
<path fill="#E14E2B" opacity="1.000000" stroke="none" 
	d="
M237.000000,501.000000 
	C158.000015,501.000000 79.500038,501.000000 1.000042,501.000000 
	C1.000028,334.333405 1.000028,167.666779 1.000014,1.000132 
	C167.666565,1.000088 334.333130,1.000088 500.999756,1.000044 
	C500.999847,167.666519 500.999847,334.333038 500.999939,500.999786 
	C413.166656,501.000000 325.333344,501.000000 237.000000,501.000000 
M186.570526,169.113251 
	C163.116348,169.634735 141.960739,176.205460 124.816223,192.963074 
	C105.251495,212.086288 98.535263,235.908035 99.803368,262.552124 
	C100.664047,280.635956 105.574135,297.323608 117.370232,311.434357 
	C131.010208,327.750854 148.888031,336.057831 169.776932,338.166534 
	C193.781052,340.589691 216.920197,337.703094 238.585983,326.314728 
	C240.968826,325.062225 242.361221,323.768311 242.342499,320.683807 
	C242.195877,296.527283 242.233917,272.369446 242.287308,248.212158 
	C242.296402,244.089890 240.615997,242.077927 236.364136,242.090240 
	C217.204987,242.145782 198.045486,242.141541 178.886307,242.093002 
	C174.651871,242.082260 172.885773,244.060028 172.967072,248.220444 
	C173.084213,254.215851 172.985245,260.215271 172.999908,266.212952 
	C173.014755,272.287750 173.920959,273.235382 179.860977,273.255096 
	C188.151154,273.282593 196.441483,273.262054 205.308929,273.262054 
	C205.308929,282.910980 205.415939,292.027832 205.162018,301.134613 
	C205.133041,302.173981 203.166016,303.908447 201.954666,304.044128 
	C194.067749,304.927460 186.069763,306.459961 178.242310,305.901001 
	C160.489807,304.633209 148.218262,295.099976 141.970718,278.343964 
	C137.746552,267.014771 137.452057,255.226212 139.052597,243.378052 
	C141.657501,224.095123 155.257233,207.595444 173.450912,203.424774 
	C192.178909,199.131638 210.510880,201.604492 227.855865,210.141113 
	C233.585571,212.961075 235.991745,211.528900 236.000748,205.038712 
	C236.011597,197.208389 235.766602,189.367676 236.109070,181.552353 
	C236.266251,177.965332 234.812195,176.726456 231.747192,175.674423 
	C217.400696,170.750015 202.622910,168.985916 186.570526,169.113251 
M357.199036,187.778137 
	C351.831757,189.345490 346.464508,190.912842 340.808136,192.564621 
	C340.808136,200.857346 340.808136,208.782043 340.808136,216.999084 
	C336.237701,216.999084 332.097290,217.038132 327.958038,216.987442 
	C324.255371,216.942108 322.388092,218.764877 322.357605,222.402893 
	C322.307373,228.400421 322.330811,234.398697 322.347260,240.396591 
	C322.357971,244.309113 324.327850,246.117035 328.257599,246.023132 
	C332.371002,245.924805 336.488556,246.001144 340.998260,246.001144 
	C340.998260,248.312943 340.994720,250.107025 340.998779,251.901077 
	C341.037659,269.060974 340.730896,286.231018 341.233521,303.377380 
	C341.598938,315.843445 345.304230,327.404297 357.155151,333.745544 
	C371.059753,341.185669 385.701813,340.337921 400.184814,335.149628 
	C401.546295,334.661926 403.039490,332.375214 403.118805,330.853210 
	C403.447906,324.539185 403.323975,318.197144 403.234497,311.867249 
	C403.175018,307.660614 400.253754,305.818634 396.359558,307.359772 
	C384.412415,312.087921 377.420471,307.554962 377.296936,294.727142 
	C377.149353,279.400513 377.261047,264.071350 377.283508,248.743286 
	C377.284637,247.953476 377.502563,247.164001 377.674988,246.000473 
	C384.499023,246.000473 391.132782,245.952164 397.765381,246.019226 
	C401.519104,246.057190 403.269775,244.276184 403.260040,240.582169 
	C403.244659,234.750885 403.158081,228.917236 403.290985,223.088913 
	C403.393463,218.593475 401.354492,216.828979 396.935181,216.952423 
	C390.512573,217.131836 384.081238,216.998444 377.258148,216.998444 
	C377.258148,207.202560 377.319733,198.068710 377.231171,188.936310 
	C377.189240,184.614182 374.614563,182.788300 370.425079,183.928589 
	C366.254456,185.063721 362.109131,186.291794 357.199036,187.778137 
M305.260529,286.500183 
	C305.260254,265.511810 305.218536,244.523285 305.292358,223.535187 
	C305.308441,218.958832 303.489136,216.841522 298.752075,216.949585 
	C290.927124,217.128082 283.093689,217.089615 275.266754,216.962952 
	C270.758392,216.889999 269.073639,218.987656 269.081055,223.340149 
	C269.141602,258.820435 269.140839,294.300842 269.082703,329.781128 
	C269.075470,334.210480 270.956726,336.114899 275.388092,336.039276 
	C283.214813,335.905731 291.049377,335.852234 298.872986,336.057404 
	C303.666687,336.183136 305.351837,334.079773 305.308167,329.476532 
	C305.175323,315.485535 305.260345,301.492462 305.260529,286.500183 
M306.285004,174.494858 
	C305.579041,173.374191 304.995819,172.149368 304.147461,171.149506 
	C297.939270,163.832550 289.837433,162.504745 281.040436,164.446884 
	C273.603058,166.088852 268.017609,172.470673 267.014832,179.626526 
	C265.800354,188.293121 269.398773,195.761826 276.728699,199.788177 
	C284.234955,203.911377 295.002228,202.885849 301.579498,197.421249 
	C307.863831,192.199982 309.673309,184.294403 306.285004,174.494858 
z"/>
<path fill="#FFFEFD" opacity="1.000000" stroke="none" 
	d="
M187.058426,169.113251 
	C202.622910,168.985916 217.400696,170.750015 231.747192,175.674423 
	C234.812195,176.726456 236.266251,177.965332 236.109070,181.552353 
	C235.766602,189.367676 236.011597,197.208389 236.000748,205.038712 
	C235.991745,211.528900 233.585571,212.961075 227.855865,210.141113 
	C210.510880,201.604492 192.178909,199.131638 173.450912,203.424774 
	C155.257233,207.595444 141.657501,224.095123 139.052597,243.378052 
	C137.452057,255.226212 137.746552,267.014771 141.970718,278.343964 
	C148.218262,295.099976 160.489807,304.633209 178.242310,305.901001 
	C186.069763,306.459961 194.067749,304.927460 201.954666,304.044128 
	C203.166016,303.908447 205.133041,302.173981 205.162018,301.134613 
	C205.415939,292.027832 205.308929,282.910980 205.308929,273.262054 
	C196.441483,273.262054 188.151154,273.282593 179.860977,273.255096 
	C173.920959,273.235382 173.014755,272.287750 172.999908,266.212952 
	C172.985245,260.215271 173.084213,254.215851 172.967072,248.220444 
	C172.885773,244.060028 174.651871,242.082260 178.886307,242.093002 
	C198.045486,242.141541 217.204987,242.145782 236.364136,242.090240 
	C240.615997,242.077927 242.296402,244.089890 242.287308,248.212158 
	C242.233917,272.369446 242.195877,296.527283 242.342499,320.683807 
	C242.361221,323.768311 240.968826,325.062225 238.585983,326.314728 
	C216.920197,337.703094 193.781052,340.589691 169.776932,338.166534 
	C148.888031,336.057831 131.010208,327.750854 117.370232,311.434357 
	C105.574135,297.323608 100.664047,280.635956 99.803368,262.552124 
	C98.535263,235.908035 105.251495,212.086288 124.816223,192.963074 
	C141.960739,176.205460 163.116348,169.634735 187.058426,169.113251 
z"/>
<path fill="#FFFEFE" opacity="1.000000" stroke="none" 
	d="
M357.575867,187.628632 
	C362.109131,186.291794 366.254456,185.063721 370.425079,183.928589 
	C374.614563,182.788300 377.189240,184.614182 377.231171,188.936310 
	C377.319733,198.068710 377.258148,207.202560 377.258148,216.998444 
	C384.081238,216.998444 390.512573,217.131836 396.935181,216.952423 
	C401.354492,216.828979 403.393463,218.593475 403.290985,223.088913 
	C403.158081,228.917236 403.244659,234.750885 403.260040,240.582169 
	C403.269775,244.276184 401.519104,246.057190 397.765381,246.019226 
	C391.132782,245.952164 384.499023,246.000473 377.674988,246.000473 
	C377.502563,247.164001 377.284637,247.953476 377.283508,248.743286 
	C377.261047,264.071350 377.149353,279.400513 377.296936,294.727142 
	C377.420471,307.554962 384.412415,312.087921 396.359558,307.359772 
	C400.253754,305.818634 403.175018,307.660614 403.234497,311.867249 
	C403.323975,318.197144 403.447906,324.539185 403.118805,330.853210 
	C403.039490,332.375214 401.546295,334.661926 400.184814,335.149628 
	C385.701813,340.337921 371.059753,341.185669 357.155151,333.745544 
	C345.304230,327.404297 341.598938,315.843445 341.233521,303.377380 
	C340.730896,286.231018 341.037659,269.060974 340.998779,251.901077 
	C340.994720,250.107025 340.998260,248.312943 340.998260,246.001144 
	C336.488556,246.001144 332.371002,245.924805 328.257599,246.023132 
	C324.327850,246.117035 322.357971,244.309113 322.347260,240.396591 
	C322.330811,234.398697 322.307373,228.400421 322.357605,222.402893 
	C322.388092,218.764877 324.255371,216.942108 327.958038,216.987442 
	C332.097290,217.038132 336.237701,216.999084 340.808136,216.999084 
	C340.808136,208.782043 340.808136,200.857346 340.808136,192.564621 
	C346.464508,190.912842 351.831757,189.345490 357.575867,187.628632 
z"/>
<path fill="#FFFEFE" opacity="1.000000" stroke="none" 
	d="
M305.260559,287.000183 
	C305.260345,301.492462 305.175323,315.485535 305.308167,329.476532 
	C305.351837,334.079773 303.666687,336.183136 298.872986,336.057404 
	C291.049377,335.852234 283.214813,335.905731 275.388092,336.039276 
	C270.956726,336.114899 269.075470,334.210480 269.082703,329.781128 
	C269.140839,294.300842 269.141602,258.820435 269.081055,223.340149 
	C269.073639,218.987656 270.758392,216.889999 275.266754,216.962952 
	C283.093689,217.089615 290.927124,217.128082 298.752075,216.949585 
	C303.489136,216.841522 305.308441,218.958832 305.292358,223.535187 
	C305.218536,244.523285 305.260254,265.511810 305.260559,287.000183 
z"/>
<path fill="#FFFDFD" opacity="1.000000" stroke="none" 
	d="
M306.477112,174.839294 
	C309.673309,184.294403 307.863831,192.199982 301.579498,197.421249 
	C295.002228,202.885849 284.234955,203.911377 276.728699,199.788177 
	C269.398773,195.761826 265.800354,188.293121 267.014832,179.626526 
	C268.017609,172.470673 273.603058,166.088852 281.040436,164.446884 
	C289.837433,162.504745 297.939270,163.832550 304.147461,171.149506 
	C304.995819,172.149368 305.579041,173.374191 306.477112,174.839294 
z"/>
</svg>