<svg version="1.1" id="Layer_1" xmlns="http://www.w3.org/2000/svg" xmlns:xlink="http://www.w3.org/1999/xlink" x="0px" y="0px"
	 width="100%" viewBox="0 0 500 500" enable-background="new 0 0 500 500" xml:space="preserve">
<path fill="#E14E2B" opacity="1.000000" stroke="none" 
	d="
M279.000000,501.000000 
	C186.000015,501.000000 93.500046,501.000000 1.000050,501.000000 
	C1.000033,334.333405 1.000033,167.666794 1.000017,1.000139 
	C167.666565,1.000093 334.333130,1.000093 500.999756,1.000046 
	C500.999847,167.666519 500.999847,334.333038 500.999939,500.999786 
	C427.166656,501.000000 353.333344,501.000000 279.000000,501.000000 
M267.888397,286.492798 
	C267.888397,265.768890 267.888397,245.044998 267.888397,223.748749 
	C277.793060,249.833221 287.487091,275.363037 297.150665,300.812622 
	C302.495392,300.812622 307.463440,300.812622 312.595673,300.812622 
	C322.311249,274.750763 331.984406,248.802704 341.897278,222.211548 
	C341.897278,248.768158 341.897278,274.687073 341.897278,300.745178 
	C348.404541,300.745178 354.646576,300.745178 360.877991,300.745178 
	C360.877991,267.109955 360.877991,233.735687 360.877991,200.111740 
	C353.006226,200.111740 345.514130,200.285034 338.036346,200.032852 
	C334.692047,199.920059 333.108032,200.883286 331.918365,204.172119 
	C323.554718,227.293243 314.944977,250.325348 306.395508,273.379089 
	C306.222229,273.846436 305.827820,274.231750 305.810364,274.257141 
	C296.934204,250.451370 288.078674,226.629608 279.103302,202.853104 
	C278.682190,201.737518 277.211517,200.268250 276.198700,200.243744 
	C267.598602,200.035675 258.991302,200.124802 250.364471,200.124802 
	C250.364471,234.079468 250.364471,267.443542 250.364471,300.691162 
	C256.325867,300.691162 261.913116,300.691162 267.888397,300.691162 
	C267.888397,296.087891 267.888397,291.788055 267.888397,286.492798 
M88.569138,258.893250 
	C101.326431,258.893250 114.083725,258.893250 127.363014,258.893250 
	C127.363014,273.347412 127.363014,287.083282 127.363014,300.626221 
	C134.149094,300.626221 140.393677,300.626221 146.544830,300.626221 
	C146.544830,266.998749 146.544830,233.754684 146.544830,200.458557 
	C139.960556,200.458557 133.729782,200.458557 126.918587,200.458557 
	C126.918587,214.355804 126.918587,227.910950 126.918587,241.346375 
	C111.924660,241.346375 97.522194,241.346375 82.437347,241.346375 
	C82.437347,227.431259 82.437347,213.887604 82.437347,200.386719 
	C75.641365,200.386719 69.540009,200.386719 63.353771,200.386719 
	C63.353771,234.043396 63.353771,267.418915 63.353771,300.798676 
	C69.837761,300.798676 75.957573,300.798676 82.647995,300.798676 
	C82.647995,286.866119 82.647995,273.127960 82.647995,259.129517 
	C84.663666,259.033081 86.123436,258.963226 88.569138,258.893250 
M220.495514,200.106750 
	C200.106201,200.106750 179.716873,200.106750 159.350128,200.106750 
	C159.350128,205.917404 159.350128,210.857132 159.350128,216.196533 
	C168.877411,216.196533 178.172836,216.196533 188.035950,216.196533 
	C188.035950,244.627701 188.035950,272.661285 188.035950,300.663788 
	C194.837387,300.663788 201.057587,300.663788 207.826141,300.663788 
	C207.826141,272.432465 207.826141,244.541000 207.826141,216.089233 
	C217.602859,216.089233 226.835327,216.089233 235.859558,216.089233 
	C235.859558,210.453568 235.859558,205.395477 235.859558,200.106750 
	C230.797226,200.106750 226.144745,200.106750 220.495514,200.106750 
M402.671997,243.500214 
	C402.671997,229.114746 402.671997,214.729294 402.671997,200.385742 
	C395.634308,200.385742 389.538330,200.385742 383.317871,200.385742 
	C383.317871,234.015854 383.317871,267.367554 383.317871,300.660370 
	C402.523956,300.660370 421.401947,300.660370 440.417877,300.660370 
	C440.417877,295.384003 440.417877,290.458221 440.417877,284.959930 
	C427.791901,284.959930 415.404999,284.959930 402.671997,284.959930 
	C402.671997,271.091949 402.671997,257.796082 402.671997,243.500214 
z"/>
<path fill="#FFFDFD" opacity="1.000000" stroke="none" 
	d="
M267.888397,286.990509 
	C267.888397,291.788055 267.888397,296.087891 267.888397,300.691162 
	C261.913116,300.691162 256.325867,300.691162 250.364471,300.691162 
	C250.364471,267.443542 250.364471,234.079468 250.364471,200.124802 
	C258.991302,200.124802 267.598602,200.035675 276.198700,200.243744 
	C277.211517,200.268250 278.682190,201.737518 279.103302,202.853104 
	C288.078674,226.629608 296.934204,250.451370 305.810364,274.257141 
	C305.827820,274.231750 306.222229,273.846436 306.395508,273.379089 
	C314.944977,250.325348 323.554718,227.293243 331.918365,204.172119 
	C333.108032,200.883286 334.692047,199.920059 338.036346,200.032852 
	C345.514130,200.285034 353.006226,200.111740 360.877991,200.111740 
	C360.877991,233.735687 360.877991,267.109955 360.877991,300.745178 
	C354.646576,300.745178 348.404541,300.745178 341.897278,300.745178 
	C341.897278,274.687073 341.897278,248.768158 341.897278,222.211548 
	C331.984406,248.802704 322.311249,274.750763 312.595673,300.812622 
	C307.463440,300.812622 302.495392,300.812622 297.150665,300.812622 
	C287.487091,275.363037 277.793060,249.833221 267.888397,223.748749 
	C267.888397,245.044998 267.888397,265.768890 267.888397,286.990509 
z"/>
<path fill="#FEFCFB" opacity="1.000000" stroke="none" 
	d="
M88.076172,258.893311 
	C86.123436,258.963226 84.663666,259.033081 82.647995,259.129517 
	C82.647995,273.127960 82.647995,286.866119 82.647995,300.798676 
	C75.957573,300.798676 69.837761,300.798676 63.353771,300.798676 
	C63.353771,267.418915 63.353771,234.043396 63.353771,200.386719 
	C69.540009,200.386719 75.641365,200.386719 82.437347,200.386719 
	C82.437347,213.887604 82.437347,227.431259 82.437347,241.346375 
	C97.522194,241.346375 111.924660,241.346375 126.918587,241.346375 
	C126.918587,227.910950 126.918587,214.355804 126.918587,200.458557 
	C133.729782,200.458557 139.960556,200.458557 146.544830,200.458557 
	C146.544830,233.754684 146.544830,266.998749 146.544830,300.626221 
	C140.393677,300.626221 134.149094,300.626221 127.363014,300.626221 
	C127.363014,287.083282 127.363014,273.347412 127.363014,258.893250 
	C114.083725,258.893250 101.326431,258.893250 88.076172,258.893311 
z"/>
<path fill="#FEFCFB" opacity="1.000000" stroke="none" 
	d="
M220.993896,200.106750 
	C226.144745,200.106750 230.797226,200.106750 235.859558,200.106750 
	C235.859558,205.395477 235.859558,210.453568 235.859558,216.089233 
	C226.835327,216.089233 217.602859,216.089233 207.826141,216.089233 
	C207.826141,244.541000 207.826141,272.432465 207.826141,300.663788 
	C201.057587,300.663788 194.837387,300.663788 188.035950,300.663788 
	C188.035950,272.661285 188.035950,244.627701 188.035950,216.196533 
	C178.172836,216.196533 168.877411,216.196533 159.350128,216.196533 
	C159.350128,210.857132 159.350128,205.917404 159.350128,200.106750 
	C179.716873,200.106750 200.106201,200.106750 220.993896,200.106750 
z"/>
<path fill="#FEFCFC" opacity="1.000000" stroke="none" 
	d="
M402.671997,244.000214 
	C402.671997,257.796082 402.671997,271.091949 402.671997,284.959930 
	C415.404999,284.959930 427.791901,284.959930 440.417877,284.959930 
	C440.417877,290.458221 440.417877,295.384003 440.417877,300.660370 
	C421.401947,300.660370 402.523956,300.660370 383.317871,300.660370 
	C383.317871,267.367554 383.317871,234.015854 383.317871,200.385742 
	C389.538330,200.385742 395.634308,200.385742 402.671997,200.385742 
	C402.671997,214.729294 402.671997,229.114746 402.671997,244.000214 
z"/>
</svg>