<svg version="1.1" id="Layer_1" xmlns="http://www.w3.org/2000/svg" xmlns:xlink="http://www.w3.org/1999/xlink" x="0px" y="0px"
	 width="100%" viewBox="0 0 500 500" enable-background="new 0 0 500 500" xml:space="preserve">
<path fill="#E14E2B" opacity="1.000000" stroke="none" 
	d="
M295.000000,501.000000 
	C196.666687,501.000000 98.833382,501.000000 1.000052,501.000000 
	C1.000035,334.333405 1.000035,167.666794 1.000018,1.000142 
	C167.666565,1.000095 334.333130,1.000095 500.999756,1.000047 
	C500.999847,167.666519 500.999847,334.333038 500.999939,500.999786 
	C432.500000,501.000000 364.000000,501.000000 295.000000,501.000000 
M129.949036,189.193726 
	C108.570709,191.917343 94.007782,208.519775 91.443787,230.271530 
	C87.368660,264.842987 110.082489,290.857910 145.797897,284.775208 
	C149.482544,284.147675 151.826569,284.747498 153.831970,287.558502 
	C159.242249,295.142212 166.405914,298.110535 175.728058,296.784973 
	C180.313889,296.132904 185.069077,296.671875 189.792267,296.671875 
	C182.277008,288.644836 175.267212,281.157684 168.167068,273.574036 
	C169.049240,272.534027 170.022232,271.422974 170.956406,270.280151 
	C184.632095,253.550186 185.901474,224.806625 173.686081,207.019806 
	C163.278351,191.865158 148.258423,187.617950 129.949036,189.193726 
M451.684723,237.237701 
	C454.148834,230.682373 456.612915,224.127029 459.203949,217.234024 
	C452.691376,217.234024 447.046112,217.234024 441.089935,217.234024 
	C435.730133,233.411926 430.376129,249.572342 424.838654,266.286499 
	C419.766754,250.536346 414.994659,235.534103 410.027008,220.596924 
	C409.570068,219.222961 407.921265,217.341904 406.729889,217.269211 
	C401.012939,216.920303 395.263000,217.112488 389.056152,217.112488 
	C389.601746,218.727356 389.867676,219.667557 390.231354,220.568283 
	C397.511627,238.599838 404.440002,256.786865 412.277985,274.572998 
	C415.252167,281.322052 415.349060,286.913666 411.895264,293.246246 
	C408.360535,299.727264 404.077301,302.249603 396.838654,300.886963 
	C395.396912,300.615570 393.985779,300.181702 392.116943,299.711029 
	C392.116943,304.066589 391.975677,308.054749 392.220001,312.019165 
	C392.278290,312.965271 393.518799,314.496185 394.392395,314.633545 
	C404.090088,316.158722 413.706512,316.055511 420.633698,307.858154 
	C424.539368,303.236328 428.011566,297.899567 430.293365,292.318359 
	C437.648407,274.328003 444.360352,256.074738 451.684723,237.237701 
M305.036285,215.743057 
	C291.305542,214.788849 280.362183,219.724869 273.755341,231.970947 
	C267.094269,244.317551 267.300140,257.270203 273.017334,269.972900 
	C275.779816,276.110687 280.649261,280.556274 286.970123,282.919495 
	C299.070251,287.443390 311.156586,286.486176 323.012848,281.851257 
	C324.252777,281.366516 325.742432,279.738770 325.866425,278.514740 
	C326.241699,274.809235 326.002106,271.041473 326.002106,267.103119 
	C302.297485,276.288483 288.167236,272.172607 287.744263,255.578644 
	C302.272308,255.578644 316.799438,255.578644 331.210876,255.578644 
	C333.980103,232.313583 324.507141,217.771027 305.036285,215.743057 
M256.007019,266.498596 
	C256.007019,250.110504 256.007019,233.722427 256.007019,217.467834 
	C249.625412,217.467834 244.053223,217.467834 238.108658,217.467834 
	C238.108658,219.627792 238.113358,221.431274 238.107895,223.234741 
	C238.074051,234.384995 238.186554,245.538391 237.951675,256.684448 
	C237.787628,264.469879 233.424957,270.107239 227.371384,271.138947 
	C218.398148,272.668213 212.907700,268.442627 212.412888,258.426727 
	C211.822296,246.471970 212.101791,234.474152 212.008896,222.494934 
	C211.995438,220.759964 212.007019,219.024796 212.007019,217.491028 
	C205.576035,217.491028 200.000778,217.491028 194.108643,217.491028 
	C194.108643,229.832932 194.018707,241.796173 194.152771,253.756897 
	C194.206619,258.560059 194.298630,263.442566 195.176453,268.138824 
	C196.638062,275.958221 200.761963,282.136108 208.823486,284.433014 
	C217.574677,286.926422 225.970978,286.334259 233.123825,279.840637 
	C234.651062,278.454163 236.104599,276.986542 238.153015,275.016937 
	C238.153015,278.325378 238.153015,280.907074 238.153015,283.698975 
	C244.267258,283.698975 249.975937,283.698975 256.007019,283.698975 
	C256.007019,278.096619 256.007019,272.797211 256.007019,266.498596 
M60.109467,234.502029 
	C60.070061,251.832932 60.204807,269.166534 59.933495,286.493805 
	C59.733711,299.252808 53.666973,303.406860 42.003002,299.345703 
	C41.796551,299.273834 41.475010,299.532440 41.268051,299.613098 
	C41.268051,304.282471 41.268051,308.900757 41.268051,313.417236 
	C60.454063,320.169678 77.214165,308.988007 77.788658,288.318268 
	C78.436501,265.009277 77.903595,241.667435 77.862274,218.339905 
	C77.861786,218.064392 77.568588,217.789383 77.338089,217.384155 
	C71.815338,217.384155 66.237053,217.384155 60.109467,217.384155 
	C60.109467,222.931183 60.109467,228.217194 60.109467,234.502029 
M361.007507,268.497803 
	C361.140106,261.508789 360.762512,254.464325 361.514954,247.542709 
	C362.938751,234.445435 370.295593,229.721390 383.010651,233.014694 
	C383.258301,233.078857 383.590485,232.816528 384.259796,232.565018 
	C384.259796,228.234940 384.445038,223.755859 384.129669,219.312317 
	C384.050751,218.200134 382.459839,216.411865 381.396423,216.279526 
	C374.273865,215.393188 368.246552,217.505920 364.051880,223.680817 
	C363.201569,224.932526 362.381805,226.204956 360.730225,228.706299 
	C360.730225,223.915497 360.730225,220.660187 360.730225,217.423431 
	C354.726135,217.423431 349.150299,217.423431 343.508423,217.423431 
	C343.508423,239.762161 343.508423,261.783173 343.508423,283.702759 
	C349.503754,283.702759 355.093933,283.702759 361.007507,283.702759 
	C361.007507,278.766144 361.007507,274.130707 361.007507,268.497803 
M58.731426,194.644196 
	C59.206535,201.585541 63.172958,205.189484 70.011795,204.893723 
	C76.061523,204.632080 80.120163,200.443619 79.893021,194.696411 
	C79.699265,189.793594 76.120583,186.227646 70.914444,185.749756 
	C64.086342,185.123016 60.336403,187.633835 58.731426,194.644196 
z"/>
<path fill="#FEFCFC" opacity="1.000000" stroke="none" 
	d="
M130.405579,189.154251 
	C148.258423,187.617950 163.278351,191.865158 173.686081,207.019806 
	C185.901474,224.806625 184.632095,253.550186 170.956406,270.280151 
	C170.022232,271.422974 169.049240,272.534027 168.167068,273.574036 
	C175.267212,281.157684 182.277008,288.644836 189.792267,296.671875 
	C185.069077,296.671875 180.313889,296.132904 175.728058,296.784973 
	C166.405914,298.110535 159.242249,295.142212 153.831970,287.558502 
	C151.826569,284.747498 149.482544,284.147675 145.797897,284.775208 
	C110.082489,290.857910 87.368660,264.842987 91.443787,230.271530 
	C94.007782,208.519775 108.570709,191.917343 130.405579,189.154251 
M156.709381,214.910660 
	C145.134857,200.242050 123.980286,201.538834 115.194550,217.992630 
	C108.250626,230.997101 108.510620,244.642288 115.618568,257.652863 
	C120.731339,267.011414 129.285583,270.247253 139.669373,269.272217 
	C149.249313,268.372620 155.998367,263.301422 159.295349,254.541275 
	C164.253128,241.368439 164.027496,228.192200 156.709381,214.910660 
z"/>
<path fill="#FEFCFB" opacity="1.000000" stroke="none" 
	d="
M451.502441,237.580261 
	C444.360352,256.074738 437.648407,274.328003 430.293365,292.318359 
	C428.011566,297.899567 424.539368,303.236328 420.633698,307.858154 
	C413.706512,316.055511 404.090088,316.158722 394.392395,314.633545 
	C393.518799,314.496185 392.278290,312.965271 392.220001,312.019165 
	C391.975677,308.054749 392.116943,304.066589 392.116943,299.711029 
	C393.985779,300.181702 395.396912,300.615570 396.838654,300.886963 
	C404.077301,302.249603 408.360535,299.727264 411.895264,293.246246 
	C415.349060,286.913666 415.252167,281.322052 412.277985,274.572998 
	C404.440002,256.786865 397.511627,238.599838 390.231354,220.568283 
	C389.867676,219.667557 389.601746,218.727356 389.056152,217.112488 
	C395.263000,217.112488 401.012939,216.920303 406.729889,217.269211 
	C407.921265,217.341904 409.570068,219.222961 410.027008,220.596924 
	C414.994659,235.534103 419.766754,250.536346 424.838654,266.286499 
	C430.376129,249.572342 435.730133,233.411926 441.089935,217.234024 
	C447.046112,217.234024 452.691376,217.234024 459.203949,217.234024 
	C456.612915,224.127029 454.148834,230.682373 451.502441,237.580261 
z"/>
<path fill="#FEFBFA" opacity="1.000000" stroke="none" 
	d="
M305.464417,215.772461 
	C324.507141,217.771027 333.980103,232.313583 331.210876,255.578644 
	C316.799438,255.578644 302.272308,255.578644 287.744263,255.578644 
	C288.167236,272.172607 302.297485,276.288483 326.002106,267.103119 
	C326.002106,271.041473 326.241699,274.809235 325.866425,278.514740 
	C325.742432,279.738770 324.252777,281.366516 323.012848,281.851257 
	C311.156586,286.486176 299.070251,287.443390 286.970123,282.919495 
	C280.649261,280.556274 275.779816,276.110687 273.017334,269.972900 
	C267.300140,257.270203 267.094269,244.317551 273.755341,231.970947 
	C280.362183,219.724869 291.305542,214.788849 305.464417,215.772461 
M305.826324,228.982254 
	C295.006592,227.911652 288.192810,233.474960 287.917145,243.694000 
	C296.633545,243.694000 305.344635,243.694000 314.033600,243.694000 
	C314.493683,235.749969 312.805847,232.505676 305.826324,228.982254 
z"/>
<path fill="#FEFCFC" opacity="1.000000" stroke="none" 
	d="
M256.007019,266.998199 
	C256.007019,272.797211 256.007019,278.096619 256.007019,283.698975 
	C249.975937,283.698975 244.267258,283.698975 238.153015,283.698975 
	C238.153015,280.907074 238.153015,278.325378 238.153015,275.016937 
	C236.104599,276.986542 234.651062,278.454163 233.123825,279.840637 
	C225.970978,286.334259 217.574677,286.926422 208.823486,284.433014 
	C200.761963,282.136108 196.638062,275.958221 195.176453,268.138824 
	C194.298630,263.442566 194.206619,258.560059 194.152771,253.756897 
	C194.018707,241.796173 194.108643,229.832932 194.108643,217.491028 
	C200.000778,217.491028 205.576035,217.491028 212.007019,217.491028 
	C212.007019,219.024796 211.995438,220.759964 212.008896,222.494934 
	C212.101791,234.474152 211.822296,246.471970 212.412888,258.426727 
	C212.907700,268.442627 218.398148,272.668213 227.371384,271.138947 
	C233.424957,270.107239 237.787628,264.469879 237.951675,256.684448 
	C238.186554,245.538391 238.074051,234.384995 238.107895,223.234741 
	C238.113358,221.431274 238.108658,219.627792 238.108658,217.467834 
	C244.053223,217.467834 249.625412,217.467834 256.007019,217.467834 
	C256.007019,233.722427 256.007019,250.110504 256.007019,266.998199 
z"/>
<path fill="#FFFDFC" opacity="1.000000" stroke="none" 
	d="
M60.109467,234.002625 
	C60.109467,228.217194 60.109467,222.931183 60.109467,217.384155 
	C66.237053,217.384155 71.815338,217.384155 77.338089,217.384155 
	C77.568588,217.789383 77.861786,218.064392 77.862274,218.339905 
	C77.903595,241.667435 78.436501,265.009277 77.788658,288.318268 
	C77.214165,308.988007 60.454063,320.169678 41.268051,313.417236 
	C41.268051,308.900757 41.268051,304.282471 41.268051,299.613098 
	C41.475010,299.532440 41.796551,299.273834 42.003002,299.345703 
	C53.666973,303.406860 59.733711,299.252808 59.933495,286.493805 
	C60.204807,269.166534 60.070061,251.832932 60.109467,234.002625 
z"/>
<path fill="#FEFCFC" opacity="1.000000" stroke="none" 
	d="
M361.007507,268.996521 
	C361.007507,274.130707 361.007507,278.766144 361.007507,283.702759 
	C355.093933,283.702759 349.503754,283.702759 343.508423,283.702759 
	C343.508423,261.783173 343.508423,239.762161 343.508423,217.423431 
	C349.150299,217.423431 354.726135,217.423431 360.730225,217.423431 
	C360.730225,220.660187 360.730225,223.915497 360.730225,228.706299 
	C362.381805,226.204956 363.201569,224.932526 364.051880,223.680817 
	C368.246552,217.505920 374.273865,215.393188 381.396423,216.279526 
	C382.459839,216.411865 384.050751,218.200134 384.129669,219.312317 
	C384.445038,223.755859 384.259796,228.234940 384.259796,232.565018 
	C383.590485,232.816528 383.258301,233.078857 383.010651,233.014694 
	C370.295593,229.721390 362.938751,234.445435 361.514954,247.542709 
	C360.762512,254.464325 361.140106,261.508789 361.007507,268.996521 
z"/>
<path fill="#FEFBFA" opacity="1.000000" stroke="none" 
	d="
M58.740028,194.269867 
	C60.336403,187.633835 64.086342,185.123016 70.914444,185.749756 
	C76.120583,186.227646 79.699265,189.793594 79.893021,194.696411 
	C80.120163,200.443619 76.061523,204.632080 70.011795,204.893723 
	C63.172958,205.189484 59.206535,201.585541 58.740028,194.269867 
z"/>
<path fill="#E14F2C" opacity="1.000000" stroke="none" 
	d="
M156.901337,215.227570 
	C164.027496,228.192200 164.253128,241.368439 159.295349,254.541275 
	C155.998367,263.301422 149.249313,268.372620 139.669373,269.272217 
	C129.285583,270.247253 120.731339,267.011414 115.618568,257.652863 
	C108.510620,244.642288 108.250626,230.997101 115.194550,217.992630 
	C123.980286,201.538834 145.134857,200.242050 156.901337,215.227570 
z"/>
<path fill="#E1502D" opacity="1.000000" stroke="none" 
	d="
M306.234619,229.068604 
	C312.805847,232.505676 314.493683,235.749969 314.033600,243.694000 
	C305.344635,243.694000 296.633545,243.694000 287.917145,243.694000 
	C288.192810,233.474960 295.006592,227.911652 306.234619,229.068604 
z"/>
</svg>