<svg version="1.1" id="Layer_1" xmlns="http://www.w3.org/2000/svg" xmlns:xlink="http://www.w3.org/1999/xlink" x="0px" y="0px"
	 width="100%" viewBox="0 0 225 225" enable-background="new 0 0 225 225" xml:space="preserve">
<path fill="#E14E2B" opacity="1.000000" stroke="none" 
	d="
M108.000000,226.000000 
	C72.000000,226.000000 36.500004,226.000000 1.000005,226.000000 
	C1.000003,151.000000 1.000003,76.000015 1.000002,1.000015 
	C75.999992,1.000010 150.999985,1.000010 225.999969,1.000005 
	C225.999985,75.999985 225.999985,150.999969 226.000000,225.999969 
	C186.833328,226.000000 147.666672,226.000000 108.000000,226.000000 
M123.245201,114.255058 
	C126.912651,116.195168 130.583923,118.128105 134.246552,120.077278 
	C138.496475,122.339020 143.248444,124.023750 146.806793,127.090897 
	C149.213577,129.165436 150.890350,133.112686 151.169083,136.369888 
	C151.515167,140.414261 147.971268,142.717484 144.275299,143.874054 
	C142.241272,144.510559 140.059235,144.787582 137.922318,144.962112 
	C128.581894,145.724960 120.345261,142.602875 112.150436,136.626907 
	C112.150436,141.816330 112.324501,146.081955 112.088966,150.324844 
	C111.933113,153.132599 112.944145,154.551117 115.575188,155.414108 
	C127.782219,159.418030 140.088226,159.886490 152.400421,156.261230 
	C161.173401,153.678070 167.398148,148.149612 168.898132,138.768784 
	C170.552917,128.419952 167.836456,119.513893 158.448547,113.710762 
	C154.363632,111.185677 149.959915,109.178253 145.715393,106.908836 
	C141.764145,104.796234 137.539215,103.048508 133.954773,100.428680 
	C127.304024,95.567719 128.423279,87.834892 136.073029,84.870010 
	C138.649353,83.871475 141.639450,83.003235 144.291733,83.320107 
	C151.248779,84.151268 158.123917,85.667900 165.522919,86.999802 
	C165.522919,84.003143 165.331635,80.061630 165.586105,76.149117 
	C165.774811,73.247475 164.586960,71.856049 161.945236,71.199554 
	C151.768539,68.670555 141.556671,68.061493 131.351456,70.863998 
	C121.737564,73.504120 114.283859,78.809929 112.329803,89.166824 
	C110.393753,99.428253 113.944351,107.834900 123.245201,114.255058 
M95.143326,139.571426 
	C95.767029,136.656311 96.907173,133.745407 96.931015,130.825394 
	C97.091324,111.186958 97.016792,91.546593 96.991913,71.906876 
	C96.991577,71.643127 96.648117,71.379814 96.507103,71.177094 
	C91.207375,71.177094 85.963707,71.177094 80.473297,71.177094 
	C80.473297,73.690865 80.488731,75.847061 80.470856,78.002968 
	C80.331551,94.809052 80.509819,111.626076 79.940086,128.417664 
	C79.480347,141.967239 70.721825,147.093185 58.533642,141.658081 
	C58.150303,141.487137 57.712959,141.437317 57.029953,141.261200 
	C57.029953,146.493607 57.029953,151.433350 57.029953,156.354721 
	C69.768799,161.693466 89.040520,158.267502 95.143326,139.571426 
z"/>
<path fill="#FEFBFA" opacity="1.000000" stroke="none" 
	d="
M122.939781,114.069305 
	C113.944351,107.834900 110.393753,99.428253 112.329803,89.166824 
	C114.283859,78.809929 121.737564,73.504120 131.351456,70.863998 
	C141.556671,68.061493 151.768539,68.670555 161.945236,71.199554 
	C164.586960,71.856049 165.774811,73.247475 165.586105,76.149117 
	C165.331635,80.061630 165.522919,84.003143 165.522919,86.999802 
	C158.123917,85.667900 151.248779,84.151268 144.291733,83.320107 
	C141.639450,83.003235 138.649353,83.871475 136.073029,84.870010 
	C128.423279,87.834892 127.304024,95.567719 133.954773,100.428680 
	C137.539215,103.048508 141.764145,104.796234 145.715393,106.908836 
	C149.959915,109.178253 154.363632,111.185677 158.448547,113.710762 
	C167.836456,119.513893 170.552917,128.419952 168.898132,138.768784 
	C167.398148,148.149612 161.173401,153.678070 152.400421,156.261230 
	C140.088226,159.886490 127.782219,159.418030 115.575188,155.414108 
	C112.944145,154.551117 111.933113,153.132599 112.088966,150.324844 
	C112.324501,146.081955 112.150436,141.816330 112.150436,136.626907 
	C120.345261,142.602875 128.581894,145.724960 137.922318,144.962112 
	C140.059235,144.787582 142.241272,144.510559 144.275299,143.874054 
	C147.971268,142.717484 151.515167,140.414261 151.169083,136.369888 
	C150.890350,133.112686 149.213577,129.165436 146.806793,127.090897 
	C143.248444,124.023750 138.496475,122.339020 134.246552,120.077278 
	C130.583923,118.128105 126.912651,116.195168 122.939781,114.069305 
z"/>
<path fill="#FEFBFA" opacity="1.000000" stroke="none" 
	d="
M95.053284,139.954742 
	C89.040520,158.267502 69.768799,161.693466 57.029953,156.354721 
	C57.029953,151.433350 57.029953,146.493607 57.029953,141.261200 
	C57.712959,141.437317 58.150303,141.487137 58.533642,141.658081 
	C70.721825,147.093185 79.480347,141.967239 79.940086,128.417664 
	C80.509819,111.626076 80.331551,94.809052 80.470856,78.002968 
	C80.488731,75.847061 80.473297,73.690865 80.473297,71.177094 
	C85.963707,71.177094 91.207375,71.177094 96.507103,71.177094 
	C96.648117,71.379814 96.991577,71.643127 96.991913,71.906876 
	C97.016792,91.546593 97.091324,111.186958 96.931015,130.825394 
	C96.907173,133.745407 95.767029,136.656311 95.053284,139.954742 
z"/>
</svg>