<svg version="1.1" id="Layer_1" xmlns="http://www.w3.org/2000/svg" xmlns:xlink="http://www.w3.org/1999/xlink" x="0px" y="0px"
	 width="100%" viewBox="0 0 500 500" enable-background="new 0 0 500 500" xml:space="preserve">
<path fill="#E14E2B" opacity="1.000000" stroke="none" 
	d="
M265.000000,501.000000 
	C176.666687,501.000000 88.833374,501.000000 1.000047,501.000000 
	C1.000031,334.333405 1.000031,167.666794 1.000016,1.000137 
	C167.666565,1.000091 334.333130,1.000091 500.999756,1.000046 
	C500.999847,167.666519 500.999847,334.333038 500.999939,500.999786 
	C422.500000,501.000000 344.000000,501.000000 265.000000,501.000000 
M43.055454,283.861359 
	C46.719963,283.872345 50.402790,283.657104 54.044319,283.951965 
	C58.542931,284.316223 59.790443,282.346619 59.742058,278.110107 
	C59.568947,262.953461 59.666218,247.793671 59.686085,232.635101 
	C59.688339,230.915451 59.848099,229.195999 59.990734,226.367844 
	C61.731544,228.800552 62.815296,230.205582 63.783997,231.685867 
	C72.622002,245.191406 82.044167,258.364288 90.046982,272.348969 
	C95.203049,281.359009 101.221802,285.525879 111.736557,284.119110 
	C116.392654,283.496155 118.036270,282.544769 117.990875,277.705200 
	C117.775276,254.719467 117.992096,231.730026 117.860481,208.743027 
	C117.771767,193.247162 120.375511,195.642883 104.412613,195.254807 
	C100.085663,195.149628 98.572273,196.515152 98.640694,200.949722 
	C98.869362,215.771622 98.727211,230.599274 98.727112,245.424713 
	C98.727104,247.141769 98.727119,248.858810 98.727119,250.575867 
	C96.750168,249.723602 95.884964,248.589600 95.110458,247.396713 
	C86.593727,234.278809 78.082527,221.157288 69.587036,208.025604 
	C60.853668,194.526245 60.864944,194.590240 44.732464,195.273468 
	C41.315872,195.418167 40.053169,196.703400 40.063297,200.106598 
	C40.141624,226.425690 40.071548,252.745270 40.194534,279.064026 
	C40.201778,280.614258 41.481129,282.158539 43.055454,283.861359 
M216.126144,225.616501 
	C205.666977,236.369034 204.486954,249.460175 207.037460,263.262573 
	C209.855576,278.513153 221.791336,287.135406 237.147125,284.823181 
	C241.552063,284.159912 245.691391,281.732697 248.560730,280.642883 
	C251.440445,281.943726 253.513596,283.370728 255.769653,283.773621 
	C258.511993,284.263367 261.435577,283.641144 264.232239,283.945557 
	C269.002014,284.464752 270.125336,282.383484 270.094971,277.895355 
	C269.914764,251.263245 270.006348,224.629303 270.005737,197.995972 
	C270.005585,190.736679 270.004181,190.736679 262.586761,190.732681 
	C250.331482,190.726105 250.331497,190.726105 250.331512,203.255753 
	C250.331512,209.603287 250.331497,215.950821 250.331497,222.773300 
	C237.861115,215.802780 226.922134,216.727234 216.126144,225.616501 
M192.472595,231.079941 
	C181.434036,214.806076 156.757462,215.740189 144.807022,223.544418 
	C131.509308,232.228485 126.716499,253.098206 134.538925,268.730774 
	C140.557648,280.758820 152.498520,286.373230 169.144104,285.001495 
	C182.637985,283.889496 193.461456,275.075134 196.700378,262.005310 
	C199.303589,251.500671 198.684982,241.216827 192.472595,231.079941 
M336.963562,229.621689 
	C327.596954,214.255493 298.170227,212.799118 286.580963,233.592712 
	C280.818848,243.931168 280.506256,254.943680 284.045959,265.966736 
	C287.660797,277.223877 295.947113,283.586304 307.502075,284.748413 
	C313.857422,285.387634 320.488220,284.872437 326.818115,283.817413 
	C336.950439,282.128540 337.022003,281.588776 337.006256,271.253876 
	C337.005219,270.588043 337.026794,269.921417 337.001953,269.256500 
	C336.842651,264.994873 335.754272,264.349579 331.822144,266.340332 
	C325.549255,269.516205 319.052032,270.999725 312.060242,269.270264 
	C305.799286,267.721588 303.476410,265.081024 302.395996,257.890350 
	C304.079590,257.890350 305.702820,257.890411 307.326080,257.890350 
	C317.313538,257.889954 327.301025,257.871857 337.288391,257.901459 
	C339.816803,257.908966 341.958710,257.731232 342.024719,254.342224 
	C342.188019,245.960815 342.048096,237.666641 336.963562,229.621689 
M434.047699,238.989059 
	C432.950134,233.900558 436.960083,233.061554 440.019745,233.218033 
	C444.553223,233.449905 449.142548,234.632812 453.474518,236.100327 
	C456.800476,237.227036 458.250977,236.810730 458.261780,233.209366 
	C458.271271,230.045563 458.460114,226.862625 458.157837,223.727859 
	C458.047028,222.578659 456.959045,220.860031 455.967621,220.561722 
	C445.678131,217.465790 435.324799,216.740967 425.263336,221.354187 
	C418.026855,224.672150 413.829895,230.242691 413.721954,238.522781 
	C413.611725,246.977493 417.451019,252.801575 425.164886,256.083282 
	C429.594391,257.967743 434.228119,259.432983 438.480530,261.643555 
	C440.230133,262.553040 441.218933,264.926056 442.553772,266.633362 
	C440.698761,267.799103 438.967865,269.635773 436.965729,270.006195 
	C430.691254,271.167023 424.791595,269.551270 419.202362,266.537964 
	C414.844543,264.188538 413.811432,264.885284 413.738647,269.938263 
	C413.700256,272.602020 413.938263,275.287170 413.676910,277.925598 
	C413.388275,280.839722 414.728241,282.108368 417.294342,282.895721 
	C426.586334,285.746887 436.136932,286.649902 445.290802,283.546509 
	C450.196411,281.883392 455.394409,278.583405 458.464050,274.515564 
	C465.206604,265.580536 461.419373,253.038376 451.372253,247.901398 
	C445.786285,245.045319 440.082397,242.419800 434.047699,238.989059 
M380.728088,225.934937 
	C380.728058,241.239700 380.769470,256.544647 380.704865,271.849121 
	C380.683167,276.993927 380.767700,282.184204 380.137390,287.271118 
	C379.143646,295.290924 375.362152,297.533661 367.770264,294.943024 
	C364.398315,293.792419 363.086578,294.830383 363.103851,298.198639 
	C363.123444,302.013855 363.108398,305.829285 363.108398,309.510864 
	C379.833618,317.784210 398.654938,307.621765 399.732758,288.781097 
	C400.975220,267.062195 400.498138,245.241058 400.487915,223.464447 
	C400.487335,222.220047 398.093933,220.142090 396.583984,219.902451 
	C393.176086,219.361603 389.607635,219.941223 386.134705,219.673416 
	C382.028015,219.356750 380.143768,220.852341 380.728088,225.934937 
M382.149841,208.337585 
	C388.471008,215.088989 400.856506,211.775040 401.957306,202.768600 
	C402.554138,197.885544 400.301605,193.952011 395.797241,191.973450 
	C391.097229,189.908951 385.219116,190.994720 382.027466,194.516983 
	C378.752472,198.131287 378.650116,202.419128 382.149841,208.337585 
M350.758972,276.659119 
	C350.752380,281.004822 352.721100,283.955353 357.005035,285.004730 
	C361.473358,286.099274 365.906128,283.284058 366.869995,278.932404 
	C367.788879,274.783752 365.171112,270.379150 361.105682,269.233612 
	C356.487335,267.932281 352.676147,270.427460 350.758972,276.659119 
z"/>
<path fill="#FEFBFB" opacity="1.000000" stroke="none" 
	d="
M42.611977,283.783478 
	C41.481129,282.158539 40.201778,280.614258 40.194534,279.064026 
	C40.071548,252.745270 40.141624,226.425690 40.063297,200.106598 
	C40.053169,196.703400 41.315872,195.418167 44.732464,195.273468 
	C60.864944,194.590240 60.853668,194.526245 69.587036,208.025604 
	C78.082527,221.157288 86.593727,234.278809 95.110458,247.396713 
	C95.884964,248.589600 96.750168,249.723602 98.727119,250.575867 
	C98.727119,248.858810 98.727104,247.141769 98.727112,245.424713 
	C98.727211,230.599274 98.869362,215.771622 98.640694,200.949722 
	C98.572273,196.515152 100.085663,195.149628 104.412613,195.254807 
	C120.375511,195.642883 117.771767,193.247162 117.860481,208.743027 
	C117.992096,231.730026 117.775276,254.719467 117.990875,277.705200 
	C118.036270,282.544769 116.392654,283.496155 111.736557,284.119110 
	C101.221802,285.525879 95.203049,281.359009 90.046982,272.348969 
	C82.044167,258.364288 72.622002,245.191406 63.783997,231.685867 
	C62.815296,230.205582 61.731544,228.800552 59.990734,226.367844 
	C59.848099,229.195999 59.688339,230.915451 59.686085,232.635101 
	C59.666218,247.793671 59.568947,262.953461 59.742058,278.110107 
	C59.790443,282.346619 58.542931,284.316223 54.044319,283.951965 
	C50.402790,283.657104 46.719963,283.872345 42.611977,283.783478 
z"/>
<path fill="#FFFDFC" opacity="1.000000" stroke="none" 
	d="
M216.378830,225.365601 
	C226.922134,216.727234 237.861115,215.802780 250.331497,222.773300 
	C250.331497,215.950821 250.331512,209.603287 250.331512,203.255753 
	C250.331497,190.726105 250.331482,190.726105 262.586761,190.732681 
	C270.004181,190.736679 270.005585,190.736679 270.005737,197.995972 
	C270.006348,224.629303 269.914764,251.263245 270.094971,277.895355 
	C270.125336,282.383484 269.002014,284.464752 264.232239,283.945557 
	C261.435577,283.641144 258.511993,284.263367 255.769653,283.773621 
	C253.513596,283.370728 251.440445,281.943726 248.560730,280.642883 
	C245.691391,281.732697 241.552063,284.159912 237.147125,284.823181 
	C221.791336,287.135406 209.855576,278.513153 207.037460,263.262573 
	C204.486954,249.460175 205.666977,236.369034 216.378830,225.365601 
M249.456314,260.610901 
	C249.754227,255.204422 250.649597,249.746368 250.188461,244.405426 
	C249.689194,238.623093 245.396301,234.996841 240.113724,234.338852 
	C234.867813,233.685455 229.714752,236.217804 228.055466,241.851746 
	C226.554428,246.948364 225.995804,252.585953 226.349426,257.896576 
	C226.761887,264.090698 231.154434,268.265381 236.094696,269.029816 
	C241.786987,269.910614 245.590530,267.660828 249.456314,260.610901 
z"/>
<path fill="#FEFDFC" opacity="1.000000" stroke="none" 
	d="
M192.685883,231.376801 
	C198.684982,241.216827 199.303589,251.500671 196.700378,262.005310 
	C193.461456,275.075134 182.637985,283.889496 169.144104,285.001495 
	C152.498520,286.373230 140.557648,280.758820 134.538925,268.730774 
	C126.716499,253.098206 131.509308,232.228485 144.807022,223.544418 
	C156.757462,215.740189 181.434036,214.806076 192.685883,231.376801 
M168.486740,234.791946 
	C159.008850,233.154449 152.615967,237.203415 151.350952,246.595642 
	C150.726303,251.233414 151.205917,256.224213 152.221909,260.826599 
	C153.474304,266.499756 158.154510,269.131042 164.798981,269.114777 
	C171.122818,269.099304 175.722336,266.503967 176.715744,260.757843 
	C177.680649,255.176636 177.522690,249.293564 177.060150,243.607941 
	C176.701370,239.198013 173.761581,236.124634 168.486740,234.791946 
z"/>
<path fill="#FFFDFC" opacity="1.000000" stroke="none" 
	d="
M337.153015,229.932373 
	C342.048096,237.666641 342.188019,245.960815 342.024719,254.342224 
	C341.958710,257.731232 339.816803,257.908966 337.288391,257.901459 
	C327.301025,257.871857 317.313538,257.889954 307.326080,257.890350 
	C305.702820,257.890411 304.079590,257.890350 302.395996,257.890350 
	C303.476410,265.081024 305.799286,267.721588 312.060242,269.270264 
	C319.052032,270.999725 325.549255,269.516205 331.822144,266.340332 
	C335.754272,264.349579 336.842651,264.994873 337.001953,269.256500 
	C337.026794,269.921417 337.005219,270.588043 337.006256,271.253876 
	C337.022003,281.588776 336.950439,282.128540 326.818115,283.817413 
	C320.488220,284.872437 313.857422,285.387634 307.502075,284.748413 
	C295.947113,283.586304 287.660797,277.223877 284.045959,265.966736 
	C280.506256,254.943680 280.818848,243.931168 286.580963,233.592712 
	C298.170227,212.799118 327.596954,214.255493 337.153015,229.932373 
M321.046936,243.996658 
	C321.675079,243.647018 322.863525,243.266602 322.846252,242.952408 
	C322.628998,238.996170 321.604401,235.452774 317.413940,233.798355 
	C310.602509,231.109161 303.992249,235.583466 302.754608,244.004257 
	C308.573761,244.004257 314.354156,244.004257 321.046936,243.996658 
z"/>
<path fill="#FEFCFC" opacity="1.000000" stroke="none" 
	d="
M434.239685,239.339722 
	C440.082397,242.419800 445.786285,245.045319 451.372253,247.901398 
	C461.419373,253.038376 465.206604,265.580536 458.464050,274.515564 
	C455.394409,278.583405 450.196411,281.883392 445.290802,283.546509 
	C436.136932,286.649902 426.586334,285.746887 417.294342,282.895721 
	C414.728241,282.108368 413.388275,280.839722 413.676910,277.925598 
	C413.938263,275.287170 413.700256,272.602020 413.738647,269.938263 
	C413.811432,264.885284 414.844543,264.188538 419.202362,266.537964 
	C424.791595,269.551270 430.691254,271.167023 436.965729,270.006195 
	C438.967865,269.635773 440.698761,267.799103 442.553772,266.633362 
	C441.218933,264.926056 440.230133,262.553040 438.480530,261.643555 
	C434.228119,259.432983 429.594391,257.967743 425.164886,256.083282 
	C417.451019,252.801575 413.611725,246.977493 413.721954,238.522781 
	C413.829895,230.242691 418.026855,224.672150 425.263336,221.354187 
	C435.324799,216.740967 445.678131,217.465790 455.967621,220.561722 
	C456.959045,220.860031 458.047028,222.578659 458.157837,223.727859 
	C458.460114,226.862625 458.271271,230.045563 458.261780,233.209366 
	C458.250977,236.810730 456.800476,237.227036 453.474518,236.100327 
	C449.142548,234.632812 444.553223,233.449905 440.019745,233.218033 
	C436.960083,233.061554 432.950134,233.900558 434.239685,239.339722 
z"/>
<path fill="#FEFCFB" opacity="1.000000" stroke="none" 
	d="
M380.728241,225.491394 
	C380.143768,220.852341 382.028015,219.356750 386.134705,219.673416 
	C389.607635,219.941223 393.176086,219.361603 396.583984,219.902451 
	C398.093933,220.142090 400.487335,222.220047 400.487915,223.464447 
	C400.498138,245.241058 400.975220,267.062195 399.732758,288.781097 
	C398.654938,307.621765 379.833618,317.784210 363.108398,309.510864 
	C363.108398,305.829285 363.123444,302.013855 363.103851,298.198639 
	C363.086578,294.830383 364.398315,293.792419 367.770264,294.943024 
	C375.362152,297.533661 379.143646,295.290924 380.137390,287.271118 
	C380.767700,282.184204 380.683167,276.993927 380.704865,271.849121 
	C380.769470,256.544647 380.728058,241.239700 380.728241,225.491394 
z"/>
<path fill="#FEFBFB" opacity="1.000000" stroke="none" 
	d="
M381.930969,208.033386 
	C378.650116,202.419128 378.752472,198.131287 382.027466,194.516983 
	C385.219116,190.994720 391.097229,189.908951 395.797241,191.973450 
	C400.301605,193.952011 402.554138,197.885544 401.957306,202.768600 
	C400.856506,211.775040 388.471008,215.088989 381.930969,208.033386 
z"/>
<path fill="#FEFBFB" opacity="1.000000" stroke="none" 
	d="
M350.809906,276.299988 
	C352.676147,270.427460 356.487335,267.932281 361.105682,269.233612 
	C365.171112,270.379150 367.788879,274.783752 366.869995,278.932404 
	C365.906128,283.284058 361.473358,286.099274 357.005035,285.004730 
	C352.721100,283.955353 350.752380,281.004822 350.809906,276.299988 
z"/>
<path fill="#E1512F" opacity="1.000000" stroke="none" 
	d="
M249.287689,260.968414 
	C245.590530,267.660828 241.786987,269.910614 236.094696,269.029816 
	C231.154434,268.265381 226.761887,264.090698 226.349426,257.896576 
	C225.995804,252.585953 226.554428,246.948364 228.055466,241.851746 
	C229.714752,236.217804 234.867813,233.685455 240.113724,234.338852 
	C245.396301,234.996841 249.689194,238.623093 250.188461,244.405426 
	C250.649597,249.746368 249.754227,255.204422 249.287689,260.968414 
z"/>
<path fill="#E1502E" opacity="1.000000" stroke="none" 
	d="
M168.877411,234.859558 
	C173.761581,236.124634 176.701370,239.198013 177.060150,243.607941 
	C177.522690,249.293564 177.680649,255.176636 176.715744,260.757843 
	C175.722336,266.503967 171.122818,269.099304 164.798981,269.114777 
	C158.154510,269.131042 153.474304,266.499756 152.221909,260.826599 
	C151.205917,256.224213 150.726303,251.233414 151.350952,246.595642 
	C152.615967,237.203415 159.008850,233.154449 168.877411,234.859558 
z"/>
<path fill="#E25230" opacity="1.000000" stroke="none" 
	d="
M320.590759,244.000458 
	C314.354156,244.004257 308.573761,244.004257 302.754608,244.004257 
	C303.992249,235.583466 310.602509,231.109161 317.413940,233.798355 
	C321.604401,235.452774 322.628998,238.996170 322.846252,242.952408 
	C322.863525,243.266602 321.675079,243.647018 320.590759,244.000458 
z"/>
</svg>