<svg version="1.1" id="Layer_1" xmlns="http://www.w3.org/2000/svg" xmlns:xlink="http://www.w3.org/1999/xlink" x="0px" y="0px"
	 width="100%" viewBox="0 0 500 500" enable-background="new 0 0 500 500" xml:space="preserve">
<path fill="#E14E2B" opacity="1.000000" stroke="none" 
	d="
M283.000000,501.000000 
	C188.666687,501.000000 94.833382,501.000000 1.000050,501.000000 
	C1.000034,334.333405 1.000034,167.666794 1.000017,1.000140 
	C167.666565,1.000093 334.333130,1.000093 500.999756,1.000047 
	C500.999847,167.666519 500.999847,334.333038 500.999939,500.999786 
	C428.500000,501.000000 356.000000,501.000000 283.000000,501.000000 
M130.114395,333.066040 
	C129.991806,337.513153 132.314453,339.310577 136.586838,339.280121 
	C145.581741,339.216034 154.577576,339.292847 163.572723,339.249146 
	C169.011841,339.222717 170.241959,337.953583 170.251602,332.358246 
	C170.279449,316.199982 170.254379,300.041595 170.272339,283.883270 
	C170.274292,282.123779 170.421127,280.364441 170.528198,277.998688 
	C179.365524,277.998688 187.682785,278.316559 195.968643,277.941193 
	C224.804169,276.634766 259.387756,256.287811 256.979706,212.464203 
	C255.613342,187.597641 242.237961,169.591843 218.311432,163.426910 
	C210.650253,161.452911 202.570557,160.447144 194.652267,160.258224 
	C175.839355,159.809372 157.008453,160.110229 138.184830,160.115494 
	C131.343658,160.117416 130.115646,161.352249 130.115280,168.234268 
	C130.112411,222.872772 130.113724,277.511261 130.114395,333.066040 
M337.741150,206.793869 
	C329.464111,207.210342 321.086914,206.966400 312.934143,208.202530 
	C301.519989,209.933151 291.519165,214.988220 283.390869,223.568207 
	C270.664703,237.001511 270.208038,269.213959 292.639954,280.052887 
	C302.487335,284.811035 312.801086,288.599518 322.873016,292.898773 
	C331.032562,296.381775 334.248077,299.992981 333.362793,304.437775 
	C332.457184,308.984375 327.840607,311.419220 319.638824,312.132202 
	C306.548065,313.270172 294.601654,309.917511 283.345276,303.465179 
	C277.928070,300.359955 274.772186,302.142334 274.745209,308.265076 
	C274.712921,315.594513 274.931732,322.931580 274.654175,330.250671 
	C274.518616,333.825195 275.678619,335.579071 279.089539,336.758728 
	C295.630737,342.479340 312.520935,343.769928 329.765808,341.316406 
	C340.153412,339.838531 349.636932,336.195496 358.129700,329.882172 
	C377.178955,315.721344 378.662842,279.342285 351.737305,266.987976 
	C344.648254,263.735291 337.322815,260.999542 330.121216,257.989746 
	C326.601349,256.518677 322.991882,255.193436 319.651398,253.381165 
	C316.358368,251.594650 313.470093,249.057922 313.962646,244.772934 
	C314.457001,240.472290 317.907593,238.911789 321.482117,237.723969 
	C322.729858,237.309357 324.047211,237.030350 325.354675,236.880981 
	C336.769501,235.576981 347.469147,237.948395 357.661438,243.108185 
	C361.822784,245.214844 365.192169,243.124725 365.240234,238.468018 
	C365.317596,230.972641 365.120331,223.471893 365.332520,215.981735 
	C365.414917,213.073364 364.377899,211.693848 361.646912,211.194534 
	C353.975769,209.791992 346.314880,208.333069 337.741150,206.793869 
z"/>
<path fill="#FFFEFE" opacity="1.000000" stroke="none" 
	d="
M130.114075,332.607910 
	C130.113724,277.511261 130.112411,222.872772 130.115280,168.234268 
	C130.115646,161.352249 131.343658,160.117416 138.184830,160.115494 
	C157.008453,160.110229 175.839355,159.809372 194.652267,160.258224 
	C202.570557,160.447144 210.650253,161.452911 218.311432,163.426910 
	C242.237961,169.591843 255.613342,187.597641 256.979706,212.464203 
	C259.387756,256.287811 224.804169,276.634766 195.968643,277.941193 
	C187.682785,278.316559 179.365524,277.998688 170.528198,277.998688 
	C170.421127,280.364441 170.274292,282.123779 170.272339,283.883270 
	C170.254379,300.041595 170.279449,316.199982 170.251602,332.358246 
	C170.241959,337.953583 169.011841,339.222717 163.572723,339.249146 
	C154.577576,339.292847 145.581741,339.216034 136.586838,339.280121 
	C132.314453,339.310577 129.991806,337.513153 130.114075,332.607910 
M179.546814,245.120667 
	C183.039703,245.083771 186.546692,245.236038 190.023026,244.977020 
	C204.547287,243.894867 212.569153,237.086227 214.729034,224.190826 
	C217.027695,210.466965 211.626877,199.805634 200.228348,195.840744 
	C190.566971,192.480087 180.628174,193.811600 170.505737,193.844910 
	C170.505737,211.077209 170.505737,227.801056 170.505737,245.120667 
	C173.355469,245.120667 175.962112,245.120667 179.546814,245.120667 
z"/>
<path fill="#FFFEFD" opacity="1.000000" stroke="none" 
	d="
M338.195557,206.845123 
	C346.314880,208.333069 353.975769,209.791992 361.646912,211.194534 
	C364.377899,211.693848 365.414917,213.073364 365.332520,215.981735 
	C365.120331,223.471893 365.317596,230.972641 365.240234,238.468018 
	C365.192169,243.124725 361.822784,245.214844 357.661438,243.108185 
	C347.469147,237.948395 336.769501,235.576981 325.354675,236.880981 
	C324.047211,237.030350 322.729858,237.309357 321.482117,237.723969 
	C317.907593,238.911789 314.457001,240.472290 313.962646,244.772934 
	C313.470093,249.057922 316.358368,251.594650 319.651398,253.381165 
	C322.991882,255.193436 326.601349,256.518677 330.121216,257.989746 
	C337.322815,260.999542 344.648254,263.735291 351.737305,266.987976 
	C378.662842,279.342285 377.178955,315.721344 358.129700,329.882172 
	C349.636932,336.195496 340.153412,339.838531 329.765808,341.316406 
	C312.520935,343.769928 295.630737,342.479340 279.089539,336.758728 
	C275.678619,335.579071 274.518616,333.825195 274.654175,330.250671 
	C274.931732,322.931580 274.712921,315.594513 274.745209,308.265076 
	C274.772186,302.142334 277.928070,300.359955 283.345276,303.465179 
	C294.601654,309.917511 306.548065,313.270172 319.638824,312.132202 
	C327.840607,311.419220 332.457184,308.984375 333.362793,304.437775 
	C334.248077,299.992981 331.032562,296.381775 322.873016,292.898773 
	C312.801086,288.599518 302.487335,284.811035 292.639954,280.052887 
	C270.208038,269.213959 270.664703,237.001511 283.390869,223.568207 
	C291.519165,214.988220 301.519989,209.933151 312.934143,208.202530 
	C321.086914,206.966400 329.464111,207.210342 338.195557,206.845123 
z"/>
<path fill="#E1502E" opacity="1.000000" stroke="none" 
	d="
M179.057770,245.120667 
	C175.962112,245.120667 173.355469,245.120667 170.505737,245.120667 
	C170.505737,227.801056 170.505737,211.077209 170.505737,193.844910 
	C180.628174,193.811600 190.566971,192.480087 200.228348,195.840744 
	C211.626877,199.805634 217.027695,210.466965 214.729034,224.190826 
	C212.569153,237.086227 204.547287,243.894867 190.023026,244.977020 
	C186.546692,245.236038 183.039703,245.083771 179.057770,245.120667 
z"/>
</svg>