<svg version="1.1" id="Layer_1" xmlns="http://www.w3.org/2000/svg" xmlns:xlink="http://www.w3.org/1999/xlink" x="0px" y="0px"
	 width="100%" viewBox="0 0 500 500" enable-background="new 0 0 500 500" xml:space="preserve">
<path fill="#E14E2B" opacity="1.000000" stroke="none" 
	d="
M279.000000,501.000000 
	C186.000015,501.000000 93.500046,501.000000 1.000050,501.000000 
	C1.000033,334.333405 1.000033,167.666794 1.000017,1.000139 
	C167.666565,1.000093 334.333130,1.000093 500.999756,1.000046 
	C500.999847,167.666519 500.999847,334.333038 500.999939,500.999786 
	C427.166656,501.000000 353.333344,501.000000 279.000000,501.000000 
M84.083801,200.247345 
	C70.498238,200.247345 56.912678,200.247345 43.374912,200.247345 
	C43.374912,234.125229 43.374912,267.480072 43.374912,300.780762 
	C49.873539,300.780762 55.987549,300.780762 62.778023,300.780762 
	C62.778023,287.696838 62.778023,274.824463 62.778023,262.186951 
	C72.127594,260.173889 78.298325,263.680237 82.717033,270.989594 
	C88.137413,279.955902 93.547585,288.929169 99.082649,297.824463 
	C99.873993,299.096191 101.305939,300.801300 102.502510,300.851562 
	C109.391457,301.140991 116.298790,300.992584 124.586548,300.992584 
	C112.547363,285.411957 106.033844,267.498047 91.177605,255.339478 
	C92.448593,254.814362 93.531540,254.389648 94.596375,253.923538 
	C107.691216,248.191406 113.907303,236.635330 111.848244,221.864395 
	C110.240440,210.330658 101.888763,203.008087 87.935455,200.887527 
	C86.948982,200.737610 85.971184,200.530533 84.083801,200.247345 
M201.061401,301.000519 
	C207.528229,301.000519 213.995071,301.000519 220.463989,301.000519 
	C222.821762,293.791534 224.922668,286.968262 227.356842,280.265961 
	C227.837646,278.942078 229.582809,277.175873 230.775803,277.151886 
	C242.411728,276.917999 254.054230,277.011108 265.648926,277.011108 
	C268.078888,284.129639 270.304413,290.923279 272.768311,297.629333 
	C273.244751,298.926086 274.610596,300.795807 275.638336,300.843414 
	C282.035767,301.139862 288.453735,300.992828 295.348236,300.992828 
	C294.633759,298.770905 294.184814,297.198761 293.627045,295.666229 
	C284.189270,269.735229 274.761261,243.800598 265.271790,217.888489 
	C263.110535,211.986954 262.291016,203.876770 258.007050,200.949661 
	C253.665375,197.983109 245.795074,200.270752 239.476639,200.063370 
	C236.940048,199.980103 235.689331,200.772583 234.772934,203.274765 
	C223.229385,234.793732 211.545502,266.261292 199.970230,297.768677 
	C199.633957,298.684021 200.096069,299.892639 201.061401,301.000519 
M139.622925,301.005585 
	C157.047516,301.005585 174.472107,301.005585 191.934052,301.005585 
	C191.934052,295.394348 191.934052,290.322876 191.934052,284.755493 
	C179.035309,284.755493 166.465317,284.755493 154.098618,284.755493 
	C154.098618,275.681183 154.098618,267.113861 154.098618,258.091675 
	C165.456772,258.091675 176.390991,258.091675 187.267960,258.091675 
	C187.267960,252.534012 187.267960,247.459625 187.267960,241.953995 
	C175.946091,241.953995 165.016678,241.953995 153.978760,241.953995 
	C153.978760,233.262573 153.978760,225.020706 153.978760,216.320038 
	C166.042755,216.320038 177.807953,216.320038 189.759811,216.320038 
	C189.759811,210.781067 189.759811,205.705780 189.759811,200.410980 
	C171.142029,200.410980 152.770767,200.410980 134.197388,200.410980 
	C134.197388,233.947372 134.197388,267.183411 134.197388,300.746033 
	C135.767334,300.837494 137.209641,300.921509 139.622925,301.005585 
M336.036591,282.773529 
	C320.141998,274.087189 313.962372,255.749222 320.581879,236.983734 
	C323.175659,229.630676 327.645782,223.691437 334.515991,220.016052 
	C347.981293,212.812485 361.437256,215.390244 375.007050,221.309464 
	C375.007050,215.723419 374.798035,210.722183 375.085297,205.749619 
	C375.258270,202.755524 374.010193,201.392227 371.366364,201.033707 
	C364.304535,200.076080 357.235992,198.536713 350.156616,198.458908 
	C329.653046,198.233582 313.315369,206.704254 303.877777,225.088242 
	C294.154968,244.027802 294.006989,263.817200 305.273041,282.304810 
	C317.361298,302.141632 351.828094,309.885925 372.935852,298.315826 
	C373.868378,297.804657 374.869995,296.441193 374.907654,295.439667 
	C375.104248,290.209991 374.999390,284.968964 374.999390,279.543182 
	C356.697784,286.233215 347.763031,287.010437 336.036591,282.773529 
M442.493347,216.271133 
	C447.942017,216.271133 453.390717,216.271133 459.010498,216.271133 
	C459.010498,210.646622 459.010498,205.556366 459.010498,200.427460 
	C433.353973,200.427460 407.959381,200.427460 382.424561,200.427460 
	C382.424561,205.797119 382.424561,210.843201 382.424561,216.300537 
	C392.008850,216.300537 401.283386,216.300537 411.140686,216.300537 
	C411.140686,244.745773 411.140686,272.781311 411.140686,300.796143 
	C417.849396,300.796143 423.965363,300.796143 430.805054,300.796143 
	C430.805054,272.581757 430.805054,244.569519 430.805054,216.271103 
	C434.849335,216.271103 438.170563,216.271103 442.493347,216.271133 
z"/>
<path fill="#FEFCFC" opacity="1.000000" stroke="none" 
	d="
M84.536575,200.298691 
	C85.971184,200.530533 86.948982,200.737610 87.935455,200.887527 
	C101.888763,203.008087 110.240440,210.330658 111.848244,221.864395 
	C113.907303,236.635330 107.691216,248.191406 94.596375,253.923538 
	C93.531540,254.389648 92.448593,254.814362 91.177605,255.339478 
	C106.033844,267.498047 112.547363,285.411957 124.586548,300.992584 
	C116.298790,300.992584 109.391457,301.140991 102.502510,300.851562 
	C101.305939,300.801300 99.873993,299.096191 99.082649,297.824463 
	C93.547585,288.929169 88.137413,279.955902 82.717033,270.989594 
	C78.298325,263.680237 72.127594,260.173889 62.778023,262.186951 
	C62.778023,274.824463 62.778023,287.696838 62.778023,300.780762 
	C55.987549,300.780762 49.873539,300.780762 43.374912,300.780762 
	C43.374912,267.480072 43.374912,234.125229 43.374912,200.247345 
	C56.912678,200.247345 70.498238,200.247345 84.536575,200.298691 
M62.661957,235.484100 
	C62.661957,238.890289 62.661957,242.296494 62.661957,246.406326 
	C68.855186,245.913086 74.342529,245.910950 79.652618,244.939713 
	C85.870506,243.802414 90.543594,238.042709 91.084915,232.066177 
	C91.748802,224.736389 89.593628,219.581635 84.314262,217.393326 
	C77.433731,214.541351 70.200981,215.246643 62.661934,215.411362 
	C62.661934,222.242508 62.661934,228.364838 62.661957,235.484100 
z"/>
<path fill="#FEFCFC" opacity="1.000000" stroke="none" 
	d="
M200.623657,300.982513 
	C200.096069,299.892639 199.633957,298.684021 199.970230,297.768677 
	C211.545502,266.261292 223.229385,234.793732 234.772934,203.274765 
	C235.689331,200.772583 236.940048,199.980103 239.476639,200.063370 
	C245.795074,200.270752 253.665375,197.983109 258.007050,200.949661 
	C262.291016,203.876770 263.110535,211.986954 265.271790,217.888489 
	C274.761261,243.800598 284.189270,269.735229 293.627045,295.666229 
	C294.184814,297.198761 294.633759,298.770905 295.348236,300.992828 
	C288.453735,300.992828 282.035767,301.139862 275.638336,300.843414 
	C274.610596,300.795807 273.244751,298.926086 272.768311,297.629333 
	C270.304413,290.923279 268.078888,284.129639 265.648926,277.011108 
	C254.054230,277.011108 242.411728,276.917999 230.775803,277.151886 
	C229.582809,277.175873 227.837646,278.942078 227.356842,280.265961 
	C224.922668,286.968262 222.821762,293.791534 220.463989,301.000519 
	C213.995071,301.000519 207.528229,301.000519 200.623657,300.982513 
M254.079422,241.468094 
	C251.772736,234.695541 249.466064,227.923004 246.808731,220.120880 
	C241.969818,234.540909 237.567245,247.660645 233.086121,261.014435 
	C242.461319,261.014435 251.192062,261.014435 260.609375,261.014435 
	C258.405762,254.421341 256.366638,248.320465 254.079422,241.468094 
z"/>
<path fill="#FFFDFD" opacity="1.000000" stroke="none" 
	d="
M139.137451,301.005554 
	C137.209641,300.921509 135.767334,300.837494 134.197388,300.746033 
	C134.197388,267.183411 134.197388,233.947372 134.197388,200.410980 
	C152.770767,200.410980 171.142029,200.410980 189.759811,200.410980 
	C189.759811,205.705780 189.759811,210.781067 189.759811,216.320038 
	C177.807953,216.320038 166.042755,216.320038 153.978760,216.320038 
	C153.978760,225.020706 153.978760,233.262573 153.978760,241.953995 
	C165.016678,241.953995 175.946091,241.953995 187.267960,241.953995 
	C187.267960,247.459625 187.267960,252.534012 187.267960,258.091675 
	C176.390991,258.091675 165.456772,258.091675 154.098618,258.091675 
	C154.098618,267.113861 154.098618,275.681183 154.098618,284.755493 
	C166.465317,284.755493 179.035309,284.755493 191.934052,284.755493 
	C191.934052,290.322876 191.934052,295.394348 191.934052,301.005585 
	C174.472107,301.005585 157.047516,301.005585 139.137451,301.005554 
z"/>
<path fill="#FEFCFC" opacity="1.000000" stroke="none" 
	d="
M336.406433,282.900146 
	C347.763031,287.010437 356.697784,286.233215 374.999390,279.543182 
	C374.999390,284.968964 375.104248,290.209991 374.907654,295.439667 
	C374.869995,296.441193 373.868378,297.804657 372.935852,298.315826 
	C351.828094,309.885925 317.361298,302.141632 305.273041,282.304810 
	C294.006989,263.817200 294.154968,244.027802 303.877777,225.088242 
	C313.315369,206.704254 329.653046,198.233582 350.156616,198.458908 
	C357.235992,198.536713 364.304535,200.076080 371.366364,201.033707 
	C374.010193,201.392227 375.258270,202.755524 375.085297,205.749619 
	C374.798035,210.722183 375.007050,215.723419 375.007050,221.309464 
	C361.437256,215.390244 347.981293,212.812485 334.515991,220.016052 
	C327.645782,223.691437 323.175659,229.630676 320.581879,236.983734 
	C313.962372,255.749222 320.141998,274.087189 336.406433,282.900146 
z"/>
<path fill="#FEFCFB" opacity="1.000000" stroke="none" 
	d="
M441.992584,216.271118 
	C438.170563,216.271103 434.849335,216.271103 430.805054,216.271103 
	C430.805054,244.569519 430.805054,272.581757 430.805054,300.796143 
	C423.965363,300.796143 417.849396,300.796143 411.140686,300.796143 
	C411.140686,272.781311 411.140686,244.745773 411.140686,216.300537 
	C401.283386,216.300537 392.008850,216.300537 382.424561,216.300537 
	C382.424561,210.843201 382.424561,205.797119 382.424561,200.427460 
	C407.959381,200.427460 433.353973,200.427460 459.010498,200.427460 
	C459.010498,205.556366 459.010498,210.646622 459.010498,216.271133 
	C453.390717,216.271133 447.942017,216.271133 441.992584,216.271118 
z"/>
<path fill="#E1502D" opacity="1.000000" stroke="none" 
	d="
M62.661945,234.985641 
	C62.661934,228.364838 62.661934,222.242508 62.661934,215.411362 
	C70.200981,215.246643 77.433731,214.541351 84.314262,217.393326 
	C89.593628,219.581635 91.748802,224.736389 91.084915,232.066177 
	C90.543594,238.042709 85.870506,243.802414 79.652618,244.939713 
	C74.342529,245.910950 68.855186,245.913086 62.661957,246.406326 
	C62.661957,242.296494 62.661957,238.890289 62.661945,234.985641 
z"/>
<path fill="#E1502E" opacity="1.000000" stroke="none" 
	d="
M254.203476,241.843842 
	C256.366638,248.320465 258.405762,254.421341 260.609375,261.014435 
	C251.192062,261.014435 242.461319,261.014435 233.086121,261.014435 
	C237.567245,247.660645 241.969818,234.540909 246.808731,220.120880 
	C249.466064,227.923004 251.772736,234.695541 254.203476,241.843842 
z"/>
</svg>