<svg version="1.1" id="Layer_1" xmlns="http://www.w3.org/2000/svg" xmlns:xlink="http://www.w3.org/1999/xlink" x="0px" y="0px"
	 width="100%" viewBox="0 0 500 500" enable-background="new 0 0 500 500" xml:space="preserve">
<path fill="#E14E2B" opacity="1.000000" stroke="none" 
	d="
M292.000000,501.000000 
	C194.666687,501.000000 97.833382,501.000000 1.000052,501.000000 
	C1.000035,334.333405 1.000035,167.666794 1.000017,1.000141 
	C167.666565,1.000094 334.333130,1.000094 500.999756,1.000047 
	C500.999847,167.666519 500.999847,334.333038 500.999939,500.999786 
	C431.500000,501.000000 362.000000,501.000000 292.000000,501.000000 
M195.050278,277.020477 
	C206.861603,277.020477 218.672913,277.020477 230.631516,277.020477 
	C233.071930,284.126343 235.322998,291.061554 237.906799,297.870483 
	C238.400146,299.170532 240.164337,300.800720 241.413757,300.863922 
	C247.530869,301.173370 253.672180,301.004181 260.546265,301.004181 
	C248.205902,267.056641 236.072388,233.678101 223.869614,200.109055 
	C217.821274,200.109055 211.989532,200.408951 206.206650,200.006577 
	C202.163239,199.725235 200.434601,201.163513 199.075333,204.903656 
	C188.915833,232.858261 178.517426,260.726013 168.209991,288.626892 
	C166.744217,292.594543 165.365204,296.594269 163.871002,300.789795 
	C171.445847,300.789795 178.403824,300.789795 185.508209,300.789795 
	C186.431625,297.975647 187.221375,295.279633 188.198151,292.653198 
	C190.133972,287.447968 192.173004,282.281097 195.050278,277.020477 
M104.090233,250.429367 
	C108.607445,252.898087 113.116852,255.381226 117.643929,257.831726 
	C122.748352,260.594788 128.063477,263.027466 132.919983,266.170807 
	C136.754822,268.652863 138.792160,272.634003 137.828369,277.397644 
	C136.860565,282.181152 133.324036,285.030975 128.891769,285.784088 
	C123.880440,286.635620 118.444962,287.431854 113.617546,286.354340 
	C106.333214,284.728363 99.416069,281.457397 92.107948,278.800201 
	C92.107948,283.256683 92.316826,288.520630 92.029419,293.757294 
	C91.857697,296.886169 93.202744,298.208282 95.896271,299.111877 
	C110.533989,304.022400 125.341072,304.738098 140.014374,299.889282 
	C155.337357,294.825775 162.379364,280.615204 157.816086,265.218079 
	C155.149719,256.221405 148.370026,250.975113 140.513229,246.869354 
	C133.445541,243.175964 126.186874,239.840179 119.192413,236.017365 
	C114.817520,233.626266 112.167137,229.786240 112.971214,224.494537 
	C113.763298,219.281754 117.747551,216.992569 122.263176,215.909576 
	C131.795380,213.623413 141.081696,214.643311 149.955521,218.940308 
	C151.348724,219.614929 152.777298,220.216553 154.671158,221.068634 
	C154.671158,215.703308 154.488770,211.042480 154.733734,206.404221 
	C154.903839,203.183609 153.791534,201.633179 150.619995,200.819626 
	C137.773529,197.524368 124.926735,196.931427 112.223709,201.057281 
	C101.956596,204.391998 94.205215,210.766876 92.296524,221.969147 
	C90.350380,233.391174 93.882965,243.016388 104.090233,250.429367 
M283.174133,202.600433 
	C262.088470,211.655823 261.101929,240.251587 281.274292,251.887482 
	C285.013031,254.044052 288.935730,255.880798 292.764069,257.883240 
	C297.616791,260.421539 302.647705,262.683350 307.251434,265.614563 
	C311.405182,268.259308 313.923431,272.317657 312.793640,277.520752 
	C311.716644,282.480713 307.953308,285.232758 303.283905,285.931122 
	C298.412231,286.659698 293.155640,287.427185 288.493805,286.343292 
	C281.226501,284.653625 274.319153,281.415802 267.118988,278.782684 
	C267.118988,283.831238 266.956299,289.615051 267.253052,295.375183 
	C267.314087,296.560181 268.875641,298.267609 270.108978,298.701599 
	C286.007507,304.296539 302.164795,305.283051 317.883240,298.713654 
	C336.488251,290.937927 340.028595,265.906006 324.454773,252.982529 
	C319.545197,248.908478 313.453217,246.229416 307.808105,243.080887 
	C303.024750,240.413010 297.971924,238.210541 293.287079,235.389130 
	C289.306488,232.991867 287.243835,229.207550 287.964905,224.387451 
	C288.646942,219.828156 292.076599,217.672958 295.932251,216.291824 
	C298.238525,215.465683 300.778625,215.130524 303.242279,214.934357 
	C312.395264,214.205612 320.992188,216.216843 329.671082,221.483963 
	C329.671082,215.819138 329.468140,211.048935 329.740448,206.306030 
	C329.930817,202.990784 328.588562,201.569412 325.522583,200.804718 
	C311.473877,197.300873 297.570618,196.912277 283.174133,202.600433 
M407.671722,213.367264 
	C407.670563,210.703293 407.968628,207.991348 407.552032,205.394012 
	C407.315826,203.921478 406.159302,201.728775 404.989502,201.404785 
	C389.019775,196.981659 373.003387,195.905121 358.015900,204.400833 
	C342.210052,213.360428 339.785156,234.640274 353.218414,246.921173 
	C358.018646,251.309662 364.264099,254.164108 369.986176,257.483826 
	C375.288147,260.559845 380.980988,263.000427 386.107147,266.328583 
	C389.932983,268.812469 391.852356,272.886932 390.784668,277.630157 
	C389.765442,282.158142 386.392334,284.998138 382.148102,285.703552 
	C376.974670,286.563385 371.382202,287.402191 366.397858,286.307129 
	C359.132416,284.710938 352.247650,281.382202 345.107788,278.757965 
	C345.107788,283.214630 345.301361,288.351135 345.037445,293.464050 
	C344.870789,296.692749 346.078278,298.187286 349.078217,299.204041 
	C362.194977,303.649597 375.491364,304.226013 388.895874,301.119629 
	C401.080170,298.296051 409.791504,291.498779 411.647125,278.406097 
	C413.505219,265.295990 408.308014,255.354813 396.835175,248.793503 
	C393.092255,246.652908 389.151825,244.859665 385.323181,242.866348 
	C380.611267,240.413193 375.790253,238.132935 371.262299,235.374298 
	C367.291840,232.955353 365.235962,229.177368 365.968079,224.363174 
	C366.660431,219.810532 370.096893,217.661636 373.950623,216.283722 
	C376.256439,215.459274 378.796509,215.129074 381.259583,214.933945 
	C390.407745,214.209259 399.000702,216.219879 407.671722,221.483368 
	C407.671722,218.474884 407.671722,216.383163 407.671722,213.367264 
z"/>
<path fill="#FEFCFC" opacity="1.000000" stroke="none" 
	d="
M194.609833,277.059418 
	C192.173004,282.281097 190.133972,287.447968 188.198151,292.653198 
	C187.221375,295.279633 186.431625,297.975647 185.508209,300.789795 
	C178.403824,300.789795 171.445847,300.789795 163.871002,300.789795 
	C165.365204,296.594269 166.744217,292.594543 168.209991,288.626892 
	C178.517426,260.726013 188.915833,232.858261 199.075333,204.903656 
	C200.434601,201.163513 202.163239,199.725235 206.206650,200.006577 
	C211.989532,200.408951 217.821274,200.109055 223.869614,200.109055 
	C236.072388,233.678101 248.205902,267.056641 260.546265,301.004181 
	C253.672180,301.004181 247.530869,301.173370 241.413757,300.863922 
	C240.164337,300.800720 238.400146,299.170532 237.906799,297.870483 
	C235.322998,291.061554 233.071930,284.126343 230.631516,277.020477 
	C218.672913,277.020477 206.861603,277.020477 194.609833,277.059418 
M224.420532,257.440704 
	C220.351120,245.354584 216.281708,233.268463 211.829376,220.045059 
	C206.953979,234.581146 202.559418,247.683563 197.979248,261.339447 
	C205.722641,261.339447 212.686737,261.339996 219.650833,261.338837 
	C220.648270,261.338654 221.649048,261.275543 222.642487,261.336243 
	C225.129349,261.488129 225.435120,260.205200 224.420532,257.440704 
z"/>
<path fill="#FEFCFC" opacity="1.000000" stroke="none" 
	d="
M103.805740,250.213226 
	C93.882965,243.016388 90.350380,233.391174 92.296524,221.969147 
	C94.205215,210.766876 101.956596,204.391998 112.223709,201.057281 
	C124.926735,196.931427 137.773529,197.524368 150.619995,200.819626 
	C153.791534,201.633179 154.903839,203.183609 154.733734,206.404221 
	C154.488770,211.042480 154.671158,215.703308 154.671158,221.068634 
	C152.777298,220.216553 151.348724,219.614929 149.955521,218.940308 
	C141.081696,214.643311 131.795380,213.623413 122.263176,215.909576 
	C117.747551,216.992569 113.763298,219.281754 112.971214,224.494537 
	C112.167137,229.786240 114.817520,233.626266 119.192413,236.017365 
	C126.186874,239.840179 133.445541,243.175964 140.513229,246.869354 
	C148.370026,250.975113 155.149719,256.221405 157.816086,265.218079 
	C162.379364,280.615204 155.337357,294.825775 140.014374,299.889282 
	C125.341072,304.738098 110.533989,304.022400 95.896271,299.111877 
	C93.202744,298.208282 91.857697,296.886169 92.029419,293.757294 
	C92.316826,288.520630 92.107948,283.256683 92.107948,278.800201 
	C99.416069,281.457397 106.333214,284.728363 113.617546,286.354340 
	C118.444962,287.431854 123.880440,286.635620 128.891769,285.784088 
	C133.324036,285.030975 136.860565,282.181152 137.828369,277.397644 
	C138.792160,272.634003 136.754822,268.652863 132.919983,266.170807 
	C128.063477,263.027466 122.748352,260.594788 117.643929,257.831726 
	C113.116852,255.381226 108.607445,252.898087 103.805740,250.213226 
z"/>
<path fill="#FEFCFC" opacity="1.000000" stroke="none" 
	d="
M283.509277,202.421555 
	C297.570618,196.912277 311.473877,197.300873 325.522583,200.804718 
	C328.588562,201.569412 329.930817,202.990784 329.740448,206.306030 
	C329.468140,211.048935 329.671082,215.819138 329.671082,221.483963 
	C320.992188,216.216843 312.395264,214.205612 303.242279,214.934357 
	C300.778625,215.130524 298.238525,215.465683 295.932251,216.291824 
	C292.076599,217.672958 288.646942,219.828156 287.964905,224.387451 
	C287.243835,229.207550 289.306488,232.991867 293.287079,235.389130 
	C297.971924,238.210541 303.024750,240.413010 307.808105,243.080887 
	C313.453217,246.229416 319.545197,248.908478 324.454773,252.982529 
	C340.028595,265.906006 336.488251,290.937927 317.883240,298.713654 
	C302.164795,305.283051 286.007507,304.296539 270.108978,298.701599 
	C268.875641,298.267609 267.314087,296.560181 267.253052,295.375183 
	C266.956299,289.615051 267.118988,283.831238 267.118988,278.782684 
	C274.319153,281.415802 281.226501,284.653625 288.493805,286.343292 
	C293.155640,287.427185 298.412231,286.659698 303.283905,285.931122 
	C307.953308,285.232758 311.716644,282.480713 312.793640,277.520752 
	C313.923431,272.317657 311.405182,268.259308 307.251434,265.614563 
	C302.647705,262.683350 297.616791,260.421539 292.764069,257.883240 
	C288.935730,255.880798 285.013031,254.044052 281.274292,251.887482 
	C261.101929,240.251587 262.088470,211.655823 283.509277,202.421555 
z"/>
<path fill="#FEFCFC" opacity="1.000000" stroke="none" 
	d="
M407.671722,213.829346 
	C407.671722,216.383163 407.671722,218.474884 407.671722,221.483368 
	C399.000702,216.219879 390.407745,214.209259 381.259583,214.933945 
	C378.796509,215.129074 376.256439,215.459274 373.950623,216.283722 
	C370.096893,217.661636 366.660431,219.810532 365.968079,224.363174 
	C365.235962,229.177368 367.291840,232.955353 371.262299,235.374298 
	C375.790253,238.132935 380.611267,240.413193 385.323181,242.866348 
	C389.151825,244.859665 393.092255,246.652908 396.835175,248.793503 
	C408.308014,255.354813 413.505219,265.295990 411.647125,278.406097 
	C409.791504,291.498779 401.080170,298.296051 388.895874,301.119629 
	C375.491364,304.226013 362.194977,303.649597 349.078217,299.204041 
	C346.078278,298.187286 344.870789,296.692749 345.037445,293.464050 
	C345.301361,288.351135 345.107788,283.214630 345.107788,278.757965 
	C352.247650,281.382202 359.132416,284.710938 366.397858,286.307129 
	C371.382202,287.402191 376.974670,286.563385 382.148102,285.703552 
	C386.392334,284.998138 389.765442,282.158142 390.784668,277.630157 
	C391.852356,272.886932 389.932983,268.812469 386.107147,266.328583 
	C380.980988,263.000427 375.288147,260.559845 369.986176,257.483826 
	C364.264099,254.164108 358.018646,251.309662 353.218414,246.921173 
	C339.785156,234.640274 342.210052,213.360428 358.015900,204.400833 
	C373.003387,195.905121 389.019775,196.981659 404.989502,201.404785 
	C406.159302,201.728775 407.315826,203.921478 407.552032,205.394012 
	C407.968628,207.991348 407.670563,210.703293 407.671722,213.829346 
z"/>
<path fill="#E1502E" opacity="1.000000" stroke="none" 
	d="
M224.590515,257.834900 
	C225.435120,260.205200 225.129349,261.488129 222.642487,261.336243 
	C221.649048,261.275543 220.648270,261.338654 219.650833,261.338837 
	C212.686737,261.339996 205.722641,261.339447 197.979248,261.339447 
	C202.559418,247.683563 206.953979,234.581146 211.829376,220.045059 
	C216.281708,233.268463 220.351120,245.354584 224.590515,257.834900 
z"/>
</svg>